<svg width="34" height="34" viewBox="0 0 34 34" version="1.1" xmlns="http://www.w3.org/2000/svg"><g fill="#FFF" stroke="none" stroke-width="1" fill-rule="evenodd"><path d="M6 10V7a1 1 0 1 0-2 0v8a1 1 0 0 0 2 0v-3h.937v5a1 1 0 0 0 1 1C8.49 18 10 17.552 10 17v-5h10v5c0 .552 1.51 1 2.062 1a1 1 0 0 0 1-1v-5H24v3a1 1 0 0 0 2 0V7a1 1 0 0 0-2 0v3h-.938V5a1 1 0 0 0-1-1C21.51 4 20 4.448 20 5v5H10V5c0-.552-1.51-1-2.063-1a1 1 0 0 0-1 1v5H6z"/><path d="M12 23v-3a1 1 0 0 0-2 0v8a1 1 0 0 0 2 0v-3h.937v5a1 1 0 0 0 1 1C14.49 31 16 30.552 16 30v-5h10v5c0 .552 1.51 1 2.062 1a1 1 0 0 0 1-1v-5H30v3a1 1 0 0 0 2 0v-8a1 1 0 0 0-2 0v3h-.938v-5a1 1 0 0 0-1-1C27.51 17 26 17.448 26 18v5H16v-5c0-.552-1.51-1-2.063-1a1 1 0 0 0-1 1v5H12z"/></g></svg>