<svg width="34" height="34" viewBox="0 0 34 34" version="1.1" xmlns="http://www.w3.org/2000/svg"><g fill="#FFF" stroke="none" stroke-width="1" fill-rule="evenodd"><circle fill-rule="nonzero" cx="-10" cy="22" r="16.906"/><path d="M-10 44c-12.15 0-22-9.85-22-22s9.85-22 22-22 22 9.85 22 22-9.85 22-22 22zm0-4c9.941 0 18-8.059 18-18S-.059 4-10 4s-18 8.059-18 18 8.059 18 18 18z" fill-rule="nonzero"/><path d="M26 36l3.007-1.874v-12a11.532 11.532 0 0 0 2.336-6.231c0-4.911-1.953-9.552-3.5-11.41C26.835 3.27 26 4 26 4v32zM14 4h2l.916 8L18 4h1.919l.989 8.063L22 4h2v12c0 2-3.371 4-3.371 4v16h-3.321V20S14 18 14 16V4z"/></g></svg>