<svg width="34" height="34" viewBox="0 0 34 34" version="1.1" xmlns="http://www.w3.org/2000/svg"><g fill="#FFF" stroke="none" stroke-width="1" fill-rule="evenodd"><path d="M0 26c8 0 9.148-4 9.148-4h1.457s3.442 4 6.36 4c3.408 0 5.968-4 5.968-4h2.133A11.38 11.38 0 0 0 34 26v2c-8 0-10.063-4-10.063-4a7.837 7.837 0 0 1-7.011 4 8.053 8.053 0 0 1-6.989-4S8 28 0 28v-2z"/><circle fill-rule="nonzero" cx="14" cy="10" r="4"/><path d="M18.143 14.362L24 8l6 4v4l-6-4-2 2 4 6-3.14.133-2.7 2.637-3.012-2.9-6.525 1.457L4 18v-4l6.851 3.609z"/></g></svg>