<svg width="34" height="34" viewBox="0 0 34 34" version="1.1" xmlns="http://www.w3.org/2000/svg"><g fill="#FFF" stroke="none" stroke-width="1" fill-rule="evenodd"><path d="M13 17.863a3.137 3.137 0 1 1-.002 6.274A3.137 3.137 0 0 1 13 17.863zM20 22h6v2h-6z"/><path d="M25.472 24.417L24.2 20.601l-1.708.571A9.494 9.494 0 1 1 10 11.99V8H4V6h8l1.387 5.514A9.458 9.458 0 0 1 19.414 14H26v2h-4.928a9.45 9.45 0 0 1 .938 2H26v2l1.34 4.019a3 3 0 1 1-1.868.398zM13 14a7 7 0 1 0 0 14 7 7 0 0 0 0-14z"/></g></svg>