<svg width="34" height="34" viewBox="0 0 34 34" version="1.1" xmlns="http://www.w3.org/2000/svg"><g fill="#FFF" stroke="none" stroke-width="1" fill-rule="evenodd"><path d="M12 13.454a2.546 2.546 0 1 1 0 5.092 2.546 2.546 0 0 1 0-5.092zM10 8s4.593-.859 7.581 2.233C20.139 12.879 20 18 20 18h-2s.379-3.9-2.095-6.2A7.987 7.987 0 0 0 10 10V8zm0-4c3.654-.67 7.419.295 10.3 2.641C23.907 9.444 24 18 24 18h-2s.423-5.844-3.149-9.335A10.524 10.524 0 0 0 10 6V4zM4 20h2v10H4V20zm2 0h4v2H6v-2zm0 4h4v2H6v-2zm6-4h2v10h-2V20zm2 0h2v2h-2v-2zm2 0l2 2v2l-2 2v-6zm-2 4h2v2h-2v-2zm2 2h2v4h-2v-4zm4-6h2v10h-2V20zm2 8h2v2h-2v-2zm0-4h2v2h-2v-2zm0-4h2v2h-2v-2zm4 0h2v10h-2V20zm2 0h2v2h-2v-2zm0 4h2v2h-2v-2zm0 4h2v2h-2v-2z"/></g></svg>