<svg width="34" height="34" viewBox="0 0 34 34" version="1.1" xmlns="http://www.w3.org/2000/svg"><g fill="#FFF" stroke="none" stroke-width="1" fill-rule="evenodd"><path d="M4 12l7.008-6.59L18 12v16H4V12zm2 1.375l4.914-4.91L16 13.375V26H6V13.375z"/><path d="M7.391 14H9.48a3.654 3.654 0 0 1 1.351 2.9c-.18 1.287-1.952 2.774-1.952 4.082A5.253 5.253 0 0 0 10 24H8a4.84 4.84 0 0 1-1.008-2.937c0-1.319 1.512-2.916 1.655-4.2A3.807 3.807 0 0 0 7.391 14zM11.391 14h2.089a3.657 3.657 0 0 1 1.352 2.9c-.181 1.287-1.953 2.774-1.953 4.082A5.253 5.253 0 0 0 14 24h-2a4.84 4.84 0 0 1-1.008-2.937c0-1.319 1.512-2.916 1.655-4.2A3.807 3.807 0 0 0 11.391 14zM28 19a5 5 0 1 1-6 0V9a3 3 0 0 1 6 0v10zm-2 1.17V9.168C26 8.522 25.552 8 25 8s-1 .522-1 1.167V20.17a3.001 3.001 0 1 0 2 0z"/><path d="M26 16h-2l2 2zM26 12h-2l2 2z"/></g></svg>