<svg width="34" height="34" viewBox="0 0 34 34" version="1.1" xmlns="http://www.w3.org/2000/svg"><g fill="#FFF" stroke="none" stroke-width="1" fill-rule="evenodd"><path d="M10 12h4l12 10h4v4h-6l-10-8h-4v8H2V4h8v8zM4 6v6h4V6H4zm0 8v2h4v-2H4zm0 4v2h4v-2H4zm0 4v2h4v-2H4z"/><path d="M6 30h2v2H6v-2zm4 0h2v2h-2v-2zm4 0h2v2h-2v-2zm4 0h2v2h-2v-2zm4 0h2v2h-2v-2zm4 0h2v2h-2v-2zM4 32h2v2H4v-2zm4 0h2v2H8v-2zm4 0h2v2h-2v-2zm4 0h2v2h-2v-2zm4 0h2v2h-2v-2zm4 0h2v2h-2v-2zm4 0h2v2h-2v-2zm2-2h2v2h-2v-2zM2 30h2v2H2v-2zM2 26h2v2H2v-2zm4 0h2v2H6v-2zm4 0h2v2h-2v-2zm4 0h2v2h-2v-2zm4 0h2v2h-2v-2zm4 0h2v2h-2v-2zM0 28h2v2H0v-2zm4 0h2v2H4v-2zm4 0h2v2H8v-2zm4 0h2v2h-2v-2zm4 0h2v2h-2v-2zm4 0h2v2h-2v-2zm4 0h2v2h-2v-2zm2-2h2v2h-2v-2zm4 0h2v2h-2v-2zm2 2h2v2h-2v-2zm-4 0h2v2h-2v-2z" opacity=".5"/></g></svg>