<svg width="34" height="34" viewBox="0 0 34 34" version="1.1" xmlns="http://www.w3.org/2000/svg"><g fill="#FFF" stroke="none" stroke-width="1" fill-rule="evenodd"><path d="M18.648 24.134L19 26l3 .209L23.8 30H29l-8-17h-7L6 30h5.2l1.8-3.791L16 26l.334-2.005A2.847 2.847 0 0 1 14.8 21.47a2.775 2.775 0 0 1 2.7-2.844 2.847 2.847 0 0 1 1.148 5.508zM29.759 21.92a2.847 2.847 0 0 0-1.462-5.197l.003.007c-1.491 0-1.937 1.351-1.937 2.922 0 1.461.383 2.59 1.637 2.74V23l-1 1 3 5h1v-3l-1.542-2.935.3-1.145zM26.497 11.571a2.252 2.252 0 0 1 2.192 2.308 3.664 3.664 0 0 1-2.958 2.973c-1.21 0-1.426-1.7-1.426-2.973a2.252 2.252 0 0 1 2.195-2.301l-.003-.007zM6 22.394V23l1.785.98L5 29H3v-3l1.523-3-.288-1.103A2.847 2.847 0 0 1 5.7 16.73v-.004c1.491 0 1.774 1.246 1.774 2.816C7.474 21 7.23 22.227 6 22.394zM8.453 11.755a2.124 2.124 0 0 1 2.067 2.176c0 1.2-.547 2.95-1.688 2.95s-2.445-1.748-2.445-2.95a2.123 2.123 0 0 1 2.066-2.172v-.004zM12.153 8.136a1.85 1.85 0 0 1 1.8 1.9c0 1.047-.841 2.642-1.835 2.642s-1.765-1.595-1.765-2.642a1.85 1.85 0 0 1 1.803-1.896l-.003-.004zM22.841 8.192a1.85 1.85 0 0 1 1.8 1.9c0 1.047-.923 2.626-1.918 2.626-.995 0-1.682-1.579-1.682-2.626A1.85 1.85 0 0 1 22.844 8.2l-.003-.008zM17.441 7.836a1.9 1.9 0 1 1-1.8 1.9 1.85 1.85 0 0 1 1.803-1.892l-.003-.008z"/></g></svg>