<svg width="34" height="34" viewBox="0 0 34 34" version="1.1" xmlns="http://www.w3.org/2000/svg"><g fill="#FFF" stroke="none" stroke-width="1" fill-rule="evenodd"><path d="M10 14h20a2 2 0 0 1 2 2v12a2 2 0 0 1-2 2H10a2 2 0 0 1-2-2V16a2 2 0 0 1 2-2zm-.938 4v4h21.96v-4H9.062z"/><path d="M26.82 12.759H10.5A3.842 3.842 0 0 0 6.658 16.6v6.83a2 2 0 0 1-2.217-1.462L1.335 10.377a2 2 0 0 1 1.415-2.45l19.318-5.176a2 2 0 0 1 2.45 1.414l2.302 8.594zm-9.512-4.592l1.035 3.868L22.207 11l-1.036-3.868-3.863 1.035z"/></g></svg>