<svg width="34" height="34" viewBox="0 0 34 34" version="1.1" xmlns="http://www.w3.org/2000/svg"><path d="M6 6s5.255-4 10.871-4C22.25 2 28 6 28 6v2H6V6zm10-6h2v2h-2V0zm-6 14v2H8.84L10 14zm-.715 4H10v2H8l1.285-2zm-.691 4H10v2H8l.594-2zM8 26h2v2H8v-2zm0 4h2v2H8v-2zm4-20h2v2h-2v-2zm0 4h2v2h-2v-2zm0 4h2v2h-2v-2zm0 4h2v2h-2v-2zm0 4h2v2h-2v-2zm0 4h2v2h-2v-2zm4-20h2v2h-2v-2zm0 4h2v2h-2v-2zm0 4h2v2h-2v-2zm0 4h2v2h-2v-2zm0 4h2v2h-2v-2zm0 4h2v2h-2v-2zm4-20h2v2h-2v-2zm0 4h2v2h-2v-2zm0 4h2v2h-2v-2zm0 4h2v2h-2v-2zm0 4h2v2h-2v-2zm0 4h2v2h-2v-2zm4-16l1.066 2H24v-2zm0 4h.922L26 20h-2v-2zm0 4h1.449L26 24h-2v-2zm0 4h2v2h-2v-2zm0 4h2v2h-2v-2z" fill="#FFF" stroke="none" stroke-width="1" fill-rule="evenodd"/></svg>