<svg width="30" height="52" viewBox="0 0 30 52" fill="none" xmlns="http://www.w3.org/2000/svg">
<g clip-path="url(#clip0)">
<path fill-rule="evenodd" clip-rule="evenodd" d="M2.64222e-06 14.7737C0.000271848 11.9308 0.833465 9.1483 2.39961 6.76018C3.96575 4.37206 6.1983 2.47971 8.82939 1.31021C11.4605 0.140706 14.3783 -0.256271 17.2328 0.16691C20.0873 0.590091 22.7572 1.81545 24.9221 3.69597C27.087 5.57648 28.655 8.03225 29.4378 10.7686C30.2207 13.505 30.1852 16.4057 29.3357 19.1227C28.4861 21.8397 26.8586 24.2576 24.6483 26.0862C22.4381 27.9149 19.739 29.0765 16.875 29.4319V49.8589C16.875 50.3486 16.6775 50.8183 16.3258 51.1646C15.9742 51.5109 15.4973 51.7055 15 51.7055C14.5027 51.7055 14.0258 51.5109 13.6742 51.1646C13.3225 50.8183 13.125 50.3486 13.125 49.8589V29.4356C9.49862 28.9856 6.16383 27.2472 3.74706 24.5467C1.33028 21.8462 -0.00216567 18.3696 2.64222e-06 14.77V14.7737Z" fill="#17792A"/>
<ellipse cx="15" cy="14.8572" rx="9" ry="8.91429" fill="white"/>
</g>
<defs>
<clipPath id="clip0">
<rect width="30" height="52" fill="white"/>
</clipPath>
</defs>
</svg>
