<svg width="140" height="140" viewBox="0 0 140 140" fill="none" xmlns="http://www.w3.org/2000/svg">
<path d="M70 0C56.1553 0 42.6216 4.10543 31.1101 11.7971C19.5987 19.4888 10.6266 30.4213 5.32846 43.2122C0.0303298 56.003 -1.3559 70.0777 1.34506 83.6563C4.04603 97.235 10.7129 109.708 20.5026 119.497C30.2922 129.287 42.765 135.954 56.3437 138.655C69.9224 141.356 83.997 139.97 96.7879 134.672C109.579 129.373 120.511 120.401 128.203 108.89C135.895 97.3785 140 83.8447 140 70C140 51.4348 132.625 33.6301 119.497 20.5025C106.37 7.37498 88.5652 0 70 0ZM70 30C71.4834 30 72.9334 30.4399 74.1668 31.264C75.4002 32.0881 76.3615 33.2594 76.9291 34.6299C77.4968 36.0003 77.6453 37.5083 77.3559 38.9632C77.0665 40.418 76.3522 41.7544 75.3033 42.8033C74.2544 43.8522 72.9181 44.5665 71.4632 44.8559C70.0084 45.1453 68.5004 44.9968 67.1299 44.4291C65.7595 43.8614 64.5881 42.9001 63.764 41.6668C62.9399 40.4334 62.5 38.9834 62.5 37.5C62.5 35.5109 63.2902 33.6032 64.6967 32.1967C66.1033 30.7902 68.0109 30 70 30ZM90 110.625H50V99.375H64.375V70.625H55V59.375H75.625V99.375H90V110.625Z" fill="white"/>
</svg>
