<svg width="160" height="160" viewBox="0 0 160 160" fill="none" xmlns="http://www.w3.org/2000/svg">
<path d="M136 135.2V115.2C136 109.6 135.2 104 132 98.4C128.8 92.8 124.8 88 119.2 84.8C113.6 80.8 101.6 80 96 80L83.2 93.6L88 104V128L80 136.8L72 128V104L77.6 93.6L64 80C57.6 80 45.6 80.8 40 84.8C34.4 88 31.2 92.8 28 98.4C24.8 104 24 108.8 24 115.2V135.2C24 135.2 44.8 144 80 144C115.2 144 136 135.2 136 135.2Z" fill="white"/>
<path d="M79.9997 16.8008C64.7997 16.8008 55.9997 31.2008 58.3997 47.2008C60.7997 63.2008 68.7997 74.4008 79.9997 74.4008C91.1997 74.4008 99.1997 63.2008 101.6 47.2008C104 30.4008 95.1997 16.8008 79.9997 16.8008Z" fill="white"/>
</svg>
