<svg width="140" height="141" viewBox="0 0 140 141" fill="none" xmlns="http://www.w3.org/2000/svg">
<path d="M137.334 76.0988C135.557 77.8795 133.415 78.7699 130.908 78.7699C128.402 78.7699 126.283 77.8567 124.551 76.0303L122.5 74.1126V131.37H135.625C136.81 131.37 137.835 131.804 138.701 132.671C139.567 133.539 140 134.566 140 135.754C140 136.941 139.567 137.968 138.701 138.836C137.835 139.703 136.81 140.137 135.625 140.137H4.51172C3.32682 140.137 2.30143 139.703 1.43555 138.836C0.569661 137.968 0.136719 136.941 0.136719 135.754C0.136719 134.566 0.569661 133.539 1.43555 132.671C2.30143 131.804 3.32682 131.37 4.51172 131.37H17.5V74.1126L15.4492 76.0303C13.7174 77.8567 11.5983 78.7699 9.0918 78.7699C6.58529 78.7699 4.44336 77.8795 2.66602 76.0988C0.888672 74.3181 0 72.1721 0 69.6608C0 67.1495 0.865885 65.0263 2.59766 63.2912L63.3008 2.60914C65.1237 0.782742 67.3568 -0.084797 70 0.00652285C72.6432 -0.084797 74.8763 0.782742 76.6992 2.60914L137.266 63.2912C139.089 65.0263 140 67.1495 140 69.6608C140 72.1721 139.111 74.3181 137.334 76.0988ZM61.25 91.92C61.25 90.7328 60.8171 89.7055 59.9512 88.8379C59.0853 87.9704 58.0599 87.5366 56.875 87.5366H39.375C38.1901 87.5366 37.1647 87.9704 36.2988 88.8379C35.4329 89.7055 35 90.7328 35 91.92V131.37H61.25V91.92ZM105 91.92C105 90.7328 104.567 89.7055 103.701 88.8379C102.835 87.9704 101.81 87.5366 100.625 87.5366H83.125C81.9401 87.5366 80.9147 87.9704 80.0488 88.8379C79.1829 89.7055 78.75 90.7328 78.75 91.92V109.453C78.75 110.641 79.1829 111.668 80.0488 112.535C80.9147 113.403 81.9401 113.837 83.125 113.837H100.625C101.81 113.837 102.835 113.403 103.701 112.535C104.567 111.668 105 110.641 105 109.453V91.92Z" fill="white"/>
</svg>
