<svg width="134" height="108" viewBox="0 0 134 108" fill="none" xmlns="http://www.w3.org/2000/svg">
<path d="M49.6833 18.5381C47.9942 19.3827 46.0059 19.3827 44.3168 18.5381L9.01665 0.888026C5.02725 -1.10668 0.333374 1.7943 0.333374 6.25459V81.0782C0.333374 83.3508 1.61739 85.4284 3.65009 86.4447L44.3168 106.778C46.0059 107.623 47.9942 107.623 49.6833 106.778L84.3168 89.4614C86.0059 88.6168 87.9942 88.6168 89.6833 89.4614L124.983 107.111C128.973 109.106 133.667 106.205 133.667 101.745V26.9213C133.667 24.6486 132.383 22.571 130.35 21.5547L89.6833 1.22136C87.9942 0.376778 86.0059 0.376779 84.3168 1.22136L49.6833 18.5381ZM87 70.2915C87 72.5642 85.716 74.6417 83.6833 75.6581L55.6833 89.6581C51.6939 91.6528 47 88.7518 47 84.2915V37.7079C47 35.4353 48.2841 33.3577 50.3168 32.3414L78.3168 18.3414C82.3062 16.3467 87 19.2476 87 23.7079V70.2915Z" fill="white"/>
</svg>
