<svg width="112" height="112" viewBox="0 0 112 112" fill="none" xmlns="http://www.w3.org/2000/svg">
<path d="M37.3224 0C36.2159 0 35.1547 0.436177 34.3723 1.21258C33.5899 1.98898 33.1503 3.042 33.1503 4.14V16.56H20.6341C19.5276 16.56 18.4664 16.9962 17.684 17.7726C16.9015 18.549 16.462 19.602 16.462 20.7V46.9973L8.34032 49.9505C7.79802 50.1471 7.30274 50.4533 6.88583 50.8496C6.46893 51.246 6.13946 51.7239 5.91829 52.2531C5.69711 52.7824 5.58905 53.3514 5.60092 53.9242C5.61279 54.497 5.74435 55.0611 5.98727 55.5809L18.9764 83.2858C20.2042 82.8827 21.5008 82.7266 22.7901 82.8266C24.0795 82.9266 25.3358 83.2807 26.4857 83.8681C27.6356 84.4556 28.6558 85.2647 29.4869 86.248C30.3179 87.2313 30.9431 88.3692 31.3257 89.5951C31.3257 89.6172 31.348 89.6669 31.3758 89.7442C31.8888 91.1075 32.5909 92.3931 33.4618 93.564C34.9972 95.5899 36.5992 96.6 38.7131 96.6C40.827 96.6 42.429 95.5954 43.9588 93.564C44.8596 92.3519 45.579 91.017 46.0949 89.6006C46.7088 87.6321 47.9411 85.9099 49.6116 84.6857C51.2821 83.4615 53.3034 82.7996 55.3801 82.7965C57.4567 82.7934 59.48 83.4494 61.1542 84.6686C62.8284 85.8878 64.0658 87.6063 64.6857 89.573L64.7413 89.7276C65.26 91.0951 65.9676 92.3844 66.8441 93.5585C68.385 95.6009 69.9926 96.6 72.0898 96.6C74.1869 96.6 75.789 95.5954 77.3355 93.564C78.2398 92.3464 78.963 91.006 79.4827 89.5841C79.8785 88.3251 80.53 87.1599 81.3969 86.1602C82.2638 85.1605 83.3278 84.3476 84.5233 83.7715C85.7188 83.1954 87.0206 82.8683 88.3484 82.8104C89.6762 82.7525 91.0018 82.965 92.2437 83.4348L105.973 55.6637C106.232 55.1401 106.377 54.5682 106.397 53.9852C106.418 53.4023 106.315 52.8216 106.094 52.2811C105.872 51.7407 105.539 51.2527 105.114 50.8491C104.69 50.4456 104.184 50.1356 103.631 49.9394L94.3409 46.6495V20.7C94.3409 19.602 93.9013 18.549 93.1189 17.7726C92.3365 16.9962 91.2753 16.56 90.1688 16.56H77.6525V4.14C77.6525 3.042 77.213 1.98898 76.4306 1.21258C75.6482 0.436177 74.587 0 73.4805 0H37.3224ZM69.3084 16.56H41.4945V8.28H69.3084V16.56ZM85.9967 24.84V43.6963L61.5372 35.0354C57.5586 33.6282 53.209 33.6478 49.2434 35.0906L24.8062 43.9613V24.84H85.9967Z" fill="white"/>
<path d="M93.6712 91.5557L93.6544 91.4962C93.4159 90.5622 92.8981 89.736 92.179 89.142C91.46 88.548 90.5787 88.2184 89.6681 88.203C88.7574 88.1876 87.8667 88.4871 87.1302 89.0564C86.3937 89.6257 85.8513 90.4339 85.5848 91.3593V91.3712L85.5624 91.4248L85.4504 91.7699C84.7402 93.7893 83.7656 95.6922 82.5552 97.4224C80.388 100.487 77.2968 103.075 72.8 103.075C68.3032 103.075 65.2064 100.487 63.0392 97.4224C61.7594 95.5916 60.7439 93.5682 60.0264 91.4188L60.0096 91.3653C59.7468 90.4503 59.2143 89.6492 58.4905 89.0802C57.7667 88.5113 56.8899 88.2045 55.9896 88.2051C55.0892 88.2058 54.2128 88.5139 53.4898 89.0839C52.7667 89.654 52.2352 90.4558 51.9736 91.3712V91.3772L51.9512 91.4367C51.7618 92.0221 51.5469 92.5979 51.3072 93.1622C50.8088 94.3403 50.036 95.8992 48.9552 97.4224C46.7992 100.487 43.7136 103.075 39.2 103.075C34.6864 103.075 31.5952 100.487 29.4336 97.4224C28.1594 95.595 27.1496 93.5754 26.4376 91.4307L26.4208 91.3653C26.1561 90.4394 25.6153 89.6301 24.8799 89.0592C24.1446 88.4884 23.2545 88.187 22.3439 88.2004C21.4333 88.2138 20.5514 88.5414 19.8313 89.1337C19.1111 89.726 18.5917 90.551 18.3512 91.4843L18.3344 91.5378L18.2336 91.8591C17.5745 93.8361 16.6217 95.6882 15.4112 97.345C13.2608 100.261 9.83363 103.075 4.20003 103.075C3.08612 103.075 2.01783 103.545 1.23018 104.382C0.442529 105.219 3.05176e-05 106.354 3.05176e-05 107.537C3.05176e-05 108.721 0.442529 109.856 1.23018 110.693C2.01783 111.53 3.08612 112 4.20003 112C13.0144 112 18.6872 107.377 22.0248 102.855L22.4 102.325L22.7136 102.777C25.8048 107.151 31.1136 112 39.2 112C47.2864 112 52.5952 107.151 55.6808 102.777L56 102.313L56.3248 102.783C59.416 107.151 64.7248 112 72.8 112C80.8752 112 86.184 107.151 89.2752 102.777L89.5832 102.331C89.7008 102.51 89.824 102.676 89.9528 102.849C93.2848 107.377 98.9688 112 107.8 112C108.914 112 109.982 111.53 110.77 110.693C111.558 109.856 112 108.721 112 107.537C112 106.354 111.558 105.219 110.77 104.382C109.982 103.545 108.914 103.075 107.8 103.075C102.133 103.075 98.7112 100.261 96.572 97.351C95.3029 95.6079 94.322 93.6482 93.6712 91.5557Z" fill="white"/>
</svg>
