<svg width="120" height="120" viewBox="0 0 120 120" fill="none" xmlns="http://www.w3.org/2000/svg">
<path d="M30 3.75C30 2.75544 29.6049 1.80161 28.9016 1.09835C28.1984 0.395088 27.2446 0 26.25 0C25.2554 0 24.3016 0.395088 23.5984 1.09835C22.8951 1.80161 22.5 2.75544 22.5 3.75V7.5H15C11.0218 7.5 7.20644 9.08035 4.3934 11.8934C1.58035 14.7064 0 18.5218 0 22.5L0 30H120V22.5C120 18.5218 118.42 14.7064 115.607 11.8934C112.794 9.08035 108.978 7.5 105 7.5H97.5V3.75C97.5 2.75544 97.1049 1.80161 96.4017 1.09835C95.6984 0.395088 94.7446 0 93.75 0C92.7554 0 91.8016 0.395088 91.0983 1.09835C90.3951 1.80161 90 2.75544 90 3.75V7.5H30V3.75ZM120 105V37.5H0V105C0 108.978 1.58035 112.794 4.3934 115.607C7.20644 118.42 11.0218 120 15 120H105C108.978 120 112.794 118.42 115.607 115.607C118.42 112.794 120 108.978 120 105ZM93.75 52.5H101.25C102.245 52.5 103.198 52.8951 103.902 53.5984C104.605 54.3016 105 55.2554 105 56.25V63.75C105 64.7446 104.605 65.6984 103.902 66.4017C103.198 67.1049 102.245 67.5 101.25 67.5H93.75C92.7554 67.5 91.8016 67.1049 91.0983 66.4017C90.3951 65.6984 90 64.7446 90 63.75V56.25C90 55.2554 90.3951 54.3016 91.0983 53.5984C91.8016 52.8951 92.7554 52.5 93.75 52.5Z" fill="white"/>
<rect x="15" y="52.5" width="15" height="15" rx="3" fill="#183F7F"/>
<rect x="15" y="71" width="15" height="15" rx="3" fill="#183F7F"/>
<rect x="15" y="90" width="15" height="15" rx="3" fill="#183F7F"/>
<rect x="34" y="52.5" width="15" height="15" rx="3" fill="#183F7F"/>
<rect x="34" y="71" width="15" height="15" rx="3" fill="#183F7F"/>
<rect x="34" y="90" width="15" height="15" rx="3" fill="#183F7F"/>
<rect x="53" y="52.5" width="15" height="15" rx="3" fill="#183F7F"/>
<rect x="53" y="71" width="15" height="15" rx="3" fill="#183F7F"/>
<rect x="53" y="90" width="15" height="15" rx="3" fill="#183F7F"/>
<rect x="72" y="52.5" width="15" height="15" rx="3" fill="#183F7F"/>
<rect x="72" y="71" width="15" height="15" rx="3" fill="#183F7F"/>
<rect x="72" y="90" width="15" height="15" rx="3" fill="#183F7F"/>
<rect x="90" y="71" width="15" height="15" rx="3" fill="#183F7F"/>
<rect x="90" y="90" width="15" height="15" rx="3" fill="#183F7F"/>
</svg>
