<svg width="130" height="104" viewBox="0 0 130 104" fill="none" xmlns="http://www.w3.org/2000/svg">
<path d="M25 72V56H41V72H25Z" fill="white"/>
<path d="M105 11.952C104.987 8.77773 103.717 5.7378 101.468 3.49773C99.2191 1.25766 96.1741 -2.53941e-05 92.9998 3.84553e-10H12.3838C9.20119 3.84553e-10 6.14894 1.26428 3.89851 3.51472C1.64807 5.76516 0.383789 8.8174 0.383789 12V84C0.383789 89.3043 2.49093 94.3914 6.24165 98.1421C9.99238 101.893 15.0795 104 20.3838 104H109.616C114.92 104 120.007 101.893 123.758 98.1421C127.509 94.3914 129.616 89.3043 129.616 84V36C129.616 32.8174 128.352 29.7652 126.101 27.5147C123.851 25.2643 120.798 24 117.616 24H113V81.84C113 82.9009 112.578 83.9183 111.828 84.6684C111.078 85.4186 110.061 85.84 109 85.84C107.939 85.84 106.922 85.4186 106.171 84.6684C105.421 83.9183 105 82.9009 105 81.84V11.96V11.952ZM16.9998 28C16.9998 26.9391 17.4212 25.9217 18.1714 25.1716C18.9215 24.4214 19.9389 24 20.9998 24H84.9998C86.0607 24 87.0781 24.4214 87.8282 25.1716C88.5784 25.9217 88.9998 26.9391 88.9998 28C88.9998 29.0609 88.5784 30.0783 87.8282 30.8284C87.0781 31.5786 86.0607 32 84.9998 32H20.9998C19.9389 32 18.9215 31.5786 18.1714 30.8284C17.4212 30.0783 16.9998 29.0609 16.9998 28ZM60.9998 48H84.9998C86.0607 48 87.0781 48.4214 87.8282 49.1716C88.5784 49.9217 88.9998 50.9391 88.9998 52C88.9998 53.0609 88.5784 54.0783 87.8282 54.8284C87.0781 55.5786 86.0607 56 84.9998 56H60.9998C59.9389 56 58.9215 55.5786 58.1714 54.8284C57.4212 54.0783 56.9998 53.0609 56.9998 52C56.9998 50.9391 57.4212 49.9217 58.1714 49.1716C58.9215 48.4214 59.9389 48 60.9998 48ZM56.9998 76C56.9998 74.9391 57.4212 73.9217 58.1714 73.1716C58.9215 72.4214 59.9389 72 60.9998 72H84.9998C86.0607 72 87.0781 72.4214 87.8282 73.1716C88.5784 73.9217 88.9998 74.9391 88.9998 76C88.9998 77.0609 88.5784 78.0783 87.8282 78.8284C87.0781 79.5786 86.0607 80 84.9998 80H60.9998C59.9389 80 58.9215 79.5786 58.1714 78.8284C57.4212 78.0783 56.9998 77.0609 56.9998 76ZM20.9998 48H44.9998C46.0607 48 47.0781 48.4214 47.8282 49.1716C48.5784 49.9217 48.9998 50.9391 48.9998 52V76C48.9998 77.0609 48.5784 78.0783 47.8282 78.8284C47.0781 79.5786 46.0607 80 44.9998 80H20.9998C19.9389 80 18.9215 79.5786 18.1714 78.8284C17.4212 78.0783 16.9998 77.0609 16.9998 76V52C16.9998 50.9391 17.4212 49.9217 18.1714 49.1716C18.9215 48.4214 19.9389 48 20.9998 48Z" fill="white"/>
</svg>
