<svg width="140" height="99" viewBox="0 0 140 99" fill="none" xmlns="http://www.w3.org/2000/svg">
<path d="M70.4507 0H71.2295C78.4224 0.0262516 114.868 0.28877 124.695 2.93143C127.666 3.73796 130.373 5.31003 132.546 7.49054C134.719 9.67105 136.281 12.3836 137.077 15.3572C137.961 18.6824 138.582 23.0839 139.002 27.6255L139.09 28.5355L139.282 30.8107L139.352 31.7207C139.921 39.7187 139.991 47.2092 140 48.8455V49.5018C139.991 51.1994 139.913 59.1974 139.282 67.528L139.212 68.4468L139.134 69.3568C138.696 74.3621 138.049 79.3325 137.077 82.9902C136.284 85.965 134.722 88.6788 132.549 90.8597C130.376 93.0406 127.667 94.6119 124.695 95.416C114.545 98.1461 75.9635 98.3386 70.6169 98.3474H69.3743C66.6704 98.3474 55.4872 98.2949 43.7615 97.8924L42.2739 97.8399L41.5126 97.8049L40.0163 97.7436L38.5199 97.6824C28.8068 97.2536 19.5575 96.5623 15.296 95.4072C12.3251 94.6039 9.61742 93.0339 7.4443 90.8547C5.27119 88.6754 3.70889 85.9633 2.91393 82.9902C1.94262 79.3412 1.29508 74.3621 0.857554 69.3568L0.787549 68.438L0.717545 67.528C0.285684 61.5986 0.0463767 55.6568 0 49.7119L0 48.6355C0.0175011 46.7542 0.0875055 40.2525 0.560035 33.0771L0.621289 32.1758L0.647541 31.7207L0.717545 30.8107L0.910057 28.5355L0.997562 27.6255C1.41759 23.0839 2.03888 18.6737 2.92268 15.3572C3.7163 12.3824 5.278 9.66857 7.45121 7.48769C9.62441 5.3068 12.3328 3.73554 15.3047 2.93143C19.5662 1.79386 28.8156 1.09382 38.5287 0.65629L40.0163 0.595037L41.5213 0.542535L42.2739 0.516283L43.7702 0.45503C52.0982 0.187041 60.4296 0.038265 68.7618 0.00875096H70.4507V0ZM56.0035 28.0893V70.2494L92.3795 49.1781L56.0035 28.0893Z" fill="white"/>
</svg>
