<svg width="120" height="115" viewBox="0 0 120 115" fill="none" xmlns="http://www.w3.org/2000/svg">
<path d="M0 15C0 11.0218 1.58035 7.20644 4.3934 4.3934C7.20644 1.58035 11.0218 0 15 0L105 0C108.978 0 112.794 1.58035 115.607 4.3934C118.42 7.20644 120 11.0218 120 15V75C120 78.9782 118.42 82.7935 115.607 85.6066C112.794 88.4196 108.978 90 105 90H33.105C31.116 90.0004 29.2087 90.7909 27.8025 92.1975L6.405 113.595C5.88098 114.12 5.21288 114.478 4.48527 114.624C3.75766 114.769 3.00324 114.696 2.31749 114.412C1.63175 114.129 1.04551 113.648 0.632979 113.032C0.220444 112.415 0.000157612 111.69 0 110.947L0 15ZM26.25 22.5C25.2554 22.5 24.3016 22.8951 23.5984 23.5983C22.8951 24.3016 22.5 25.2554 22.5 26.25C22.5 27.2446 22.8951 28.1984 23.5984 28.9016C24.3016 29.6049 25.2554 30 26.25 30H93.75C94.7446 30 95.6984 29.6049 96.4017 28.9016C97.1049 28.1984 97.5 27.2446 97.5 26.25C97.5 25.2554 97.1049 24.3016 96.4017 23.5983C95.6984 22.8951 94.7446 22.5 93.75 22.5H26.25ZM26.25 41.25C25.2554 41.25 24.3016 41.6451 23.5984 42.3483C22.8951 43.0516 22.5 44.0054 22.5 45C22.5 45.9946 22.8951 46.9484 23.5984 47.6516C24.3016 48.3549 25.2554 48.75 26.25 48.75H93.75C94.7446 48.75 95.6984 48.3549 96.4017 47.6516C97.1049 46.9484 97.5 45.9946 97.5 45C97.5 44.0054 97.1049 43.0516 96.4017 42.3483C95.6984 41.6451 94.7446 41.25 93.75 41.25H26.25ZM26.25 60C25.2554 60 24.3016 60.3951 23.5984 61.0983C22.8951 61.8016 22.5 62.7554 22.5 63.75C22.5 64.7446 22.8951 65.6984 23.5984 66.4016C24.3016 67.1049 25.2554 67.5 26.25 67.5H63.75C64.7446 67.5 65.6984 67.1049 66.4017 66.4016C67.1049 65.6984 67.5 64.7446 67.5 63.75C67.5 62.7554 67.1049 61.8016 66.4017 61.0983C65.6984 60.3951 64.7446 60 63.75 60H26.25Z" fill="white"/>
</svg>
