<svg width="135" height="116" viewBox="0 0 135 116" fill="none" xmlns="http://www.w3.org/2000/svg">
<path d="M28.9286 28.9285V38.5713H106.071V28.9285H28.9286Z" fill="white"/>
<path d="M86.7856 67.5V86.8339H106.071V67.5H86.7856Z" fill="white"/>
<path d="M0 26.5179C0 19.4849 2.79384 12.74 7.7669 7.7669C12.74 2.79384 19.4849 0 26.5179 0H108.482C115.515 0 122.26 2.79384 127.233 7.7669C132.206 12.74 135 19.4849 135 26.5179V89.1964C135 96.2294 132.206 102.974 127.233 107.947C122.26 112.92 115.515 115.714 108.482 115.714H26.5179C19.4849 115.714 12.74 112.92 7.7669 107.947C2.79384 102.974 0 96.2294 0 89.1964V26.5179ZM19.2857 24.1071V43.3928C19.2857 44.6716 19.7937 45.8979 20.6979 46.8021C21.6021 47.7063 22.8284 48.2143 24.1071 48.2143H110.893C112.172 48.2143 113.398 47.7063 114.302 46.8021C115.206 45.8979 115.714 44.6716 115.714 43.3928V24.1071C115.714 22.8284 115.206 21.6021 114.302 20.6979C113.398 19.7937 112.172 19.2857 110.893 19.2857H24.1071C22.8284 19.2857 21.6021 19.7937 20.6979 20.6979C19.7937 21.6021 19.2857 22.8284 19.2857 24.1071ZM77.1429 62.6786V91.6553C77.1429 92.9341 77.6508 94.1604 78.555 95.0646C79.4592 95.9688 80.6856 96.4768 81.9643 96.4768H110.893C112.172 96.4768 113.398 95.9688 114.302 95.0646C115.206 94.1604 115.714 92.9341 115.714 91.6553V62.6786C115.714 61.3998 115.206 60.1735 114.302 59.2693C113.398 58.3651 112.172 57.8571 110.893 57.8571H81.9643C80.6856 57.8571 79.4592 58.3651 78.555 59.2693C77.6508 60.1735 77.1429 61.3998 77.1429 62.6786ZM24.1071 62.6786C22.8284 62.6786 21.6021 63.1865 20.6979 64.0907C19.7937 64.9949 19.2857 66.2213 19.2857 67.5C19.2857 68.7787 19.7937 70.0051 20.6979 70.9093C21.6021 71.8135 22.8284 72.3214 24.1071 72.3214H62.6786C63.9573 72.3214 65.1836 71.8135 66.0878 70.9093C66.992 70.0051 67.5 68.7787 67.5 67.5C67.5 66.2213 66.992 64.9949 66.0878 64.0907C65.1836 63.1865 63.9573 62.6786 62.6786 62.6786H24.1071ZM19.2857 86.7857C19.2857 88.0644 19.7937 89.2908 20.6979 90.195C21.6021 91.0992 22.8284 91.6071 24.1071 91.6071H62.6786C63.9573 91.6071 65.1836 91.0992 66.0878 90.195C66.992 89.2908 67.5 88.0644 67.5 86.7857C67.5 85.507 66.992 84.2806 66.0878 83.3764C65.1836 82.4722 63.9573 81.9643 62.6786 81.9643H24.1071C22.8284 81.9643 21.6021 82.4722 20.6979 83.3764C19.7937 84.2806 19.2857 85.507 19.2857 86.7857Z" fill="white"/>
</svg>
