<svg width="30" height="30" viewBox="0 0 30 30" version="1.1" xmlns="http://www.w3.org/2000/svg"><g stroke="none" stroke-width="1" fill="none" fill-rule="evenodd"><rect fill="#001E8C" fill-rule="nonzero" x="0" y="0" width="30" height="30" rx="5"/><path d="M4 8h1v13H4V8zm2 3h1v13H6V11zm2-6h1v19H8V5zm2 1h1v17h-1V6zm2 1h1v16h-1V7zm2-3h1v19h-1V4zm2-2h1v21h-1V2zm2 4h1v17h-1V6zm2 1h1v16h-1V7zm2-1h1v17h-1V6zm2 2h1v16h-1V8zm2 2h1v10h-1V10z" fill="#FFF"/><path d="M9 19h13v6H9v-6zm1-4h11l3 3H7l3-3zm7 4h3v2h-3v-2zm-1-6h3v2h-3v-2zm-5 7h4v5h-4v-5zm1 1h2v4h-2v-4z" stroke="#001E8C" stroke-width="2" fill="#FFF" stroke-linejoin="round"/></g></svg>