<svg width="30" height="30" viewBox="0 0 30 30" version="1.1" xmlns="http://www.w3.org/2000/svg"><title>sights-rest-center</title><g stroke="none" stroke-width="1" fill="none" fill-rule="evenodd"><rect fill="#001E8C" fill-rule="nonzero" x="0" y="0" width="30" height="30" rx="5"/><path d="M19.833 16H25v-6h-2v3h-2v-3h-1v3h-2v-3h-4v4h4.5l1.333 2zM11 10h1v4h-1zM14 6h-3L9 9h18l-2-3h-9V4h-2v2zM13 22h-2v-3H7v6h11v-6h-2v3h-2v-3h-1zM4 19h1v6H4z" fill="#FFF"/><path fill="#FFF" d="M7 15H4l-2 3h18l-2-3H9v-2H7v2z"/></g></svg>