<svg width="30" height="30" viewBox="0 0 30 30" version="1.1" xmlns="http://www.w3.org/2000/svg"><g stroke="none" stroke-width="1" fill="none" fill-rule="evenodd"><rect fill="#001E8C" fill-rule="nonzero" x="0" y="0" width="30" height="30" rx="5"/><path d="M8 6h18v18H8V6zm2 3h2v2h-2V9zm4 0h2v2h-2V9zm4 0h2v2h-2V9zm4 0h2v2h-2V9zm-12 4h2v2h-2v-2zm4 0h2v2h-2v-2zm4 0h2v2h-2v-2zm4 0h2v2h-2v-2zm-12 4h2v2h-2v-2zm4 0h2v2h-2v-2zm4 0h2v2h-2v-2zm4 0h2v2h-2v-2zM9 21h3v2H9v-2zm12 0h4v2h-4v-2zm-8 0h7v3h-7v-3zm1 1h5v3h-5v-3zM3 18h4v5H3v-5zm2 2h1v1H5v-1zm-2 0h1v1H3v-1zm13 2h1v3h-1v-3z" fill="#FFF"/></g></svg>