<svg width="30" height="30" viewBox="0 0 30 30" version="1.1" xmlns="http://www.w3.org/2000/svg"><title>sights-info</title><g stroke="none" stroke-width="1" fill="none" fill-rule="evenodd"><rect fill="#001E8C" fill-rule="nonzero" x="0" y="0" width="30" height="30" rx="5"/><path d="M6 2h18a4 4 0 0 1 4 4v18a4 4 0 0 1-4 4H6a4 4 0 0 1-4-4V6a4 4 0 0 1 4-4zm0 2h18a2 2 0 0 1 2 2v18a2 2 0 0 1-2 2H6a2 2 0 0 1-2-2V6a2 2 0 0 1 2-2zm9 3a2 2 0 1 1 0 4 2 2 0 0 1 0-4zm-3 6h5v8l2 1v1h-7v-1l2-1v-6l-2-1v-1z" fill="#FFF"/></g></svg>