<svg width="30" height="30" viewBox="0 0 30 30" version="1.1" xmlns="http://www.w3.org/2000/svg"><title>sights-mem</title><g stroke="none" stroke-width="1" fill="none" fill-rule="evenodd"><rect fill="#001E8C" fill-rule="nonzero" x="0" y="0" width="30" height="30" rx="5"/><path d="M7 24h16v2H7v-2zm2-2h12v2H9v-2zm1-3h10v2H10v-2zm3-14l2-2 2 2 1.493 14h-6.968L13 5zm0 12h4v3h-4v-3zm1 1h2v1h-2v-1zm-2 4h6v4h-6v-4zm0 0h6v1h-6v-1zm0 2h6v1h-6v-1zm0 2h6v1h-6v-1zM4 19h1v7H4v-7zm21 0h1v7h-1v-7zM5 20h1v1H5v-1zm1 1h1v1H6v-1zm18-1h1v1h-1v-1zm-1 1h1v1h-1v-1zm-1 0h1v1h-1v-1zM7 21h1v1H7v-1zm1-1h1v1H8v-1zm13 0h1v1h-1v-1zM3 25h3v1H3v-1zm21 0h3v1h-3v-1z" fill="#FFF"/></g></svg>