<svg width="30" height="30" viewBox="0 0 30 30" version="1.1" xmlns="http://www.w3.org/2000/svg"><g stroke="none" stroke-width="1" fill="none" fill-rule="evenodd"><rect fill="#001E8C" fill-rule="nonzero" x="0" y="0" width="30" height="30" rx="5"/><path d="M9 18h2v4H9v-4zm1 0h11v2H10v-2zm10 0h2v4h-2v-4zm2 0H9h13zm-10-3h7a1.959 1.959 0 0 1 2 2H10a1.959 1.959 0 0 1 2-2zm-1-3h1v2h-1v-2zm1 0h8v1h-8v-1zm7 1h1v1h-1v-1zm-4 0h1v1h-1v-1z" fill="#FFF"/><path d="M6 5h19l3 5h-2v16H5V10H3l3-5zm2 2h15l1 1.716V24H7V9l1-2zm10-4h4v2h-4V3z" fill="#FFF"/></g></svg>