<svg width="30" height="30" viewBox="0 0 30 30" version="1.1" xmlns="http://www.w3.org/2000/svg"><g stroke="none" stroke-width="1" fill="none" fill-rule="evenodd"><rect fill="#001E8C" fill-rule="nonzero" x="0" y="0" width="30" height="30" rx="5"/><path d="M18 16v-2h-2v2h2zm0 2h-2v2h2v-2zm-6-2h2v-2h-2v2zm0 2v2h2v-2h-2zm8-4.5V22H10V12h10v1.5zM8 25h1V8H6v17h1v-2h1zM23 25h1V8h-3v17h1v-2h1zM9 8h12v3H9z" fill="#FFF"/><path fill="#001E8C" d="M3.547 13.085L14.8 6.339l11.462 6.7-.454.657L14.8 7.339 3.547 14.085z"/><path fill="#FFF" d="M14.372 3.122L2 10.5l1.5 2.6 11.165-6.658L26.258 13l1.5-2.6L14.5 2.9z"/></g></svg>