<svg width="30" height="30" viewBox="0 0 30 30" version="1.1" xmlns="http://www.w3.org/2000/svg"><g stroke="none" stroke-width="1" fill="none" fill-rule="evenodd"><rect fill="#001E8C" fill-rule="nonzero" x="0" y="0" width="30" height="30" rx="5"/><path d="M5 5h2v21H5V5zm2 4h17v2H7V9zm17-4h2v21h-2V5zM8 6h2a1.959 1.959 0 0 1 2 2H8V6zM7 20h17v2H7v-2zm1-3h2a1.959 1.959 0 0 1 2 2H8v-2z" fill="#FFF"/><path d="M15 18h8v5H13v-3a1.959 1.959 0 0 1 2-2zM15 7h8v5H13V9a1.959 1.959 0 0 1 2-2z" fill="#FFF"/></g></svg>