<svg width="30" height="30" viewBox="0 0 30 30" version="1.1" xmlns="http://www.w3.org/2000/svg"><g stroke="none" stroke-width="1" fill="none" fill-rule="evenodd"><rect fill="#001E8C" fill-rule="nonzero" x="0" y="0" width="30" height="30" rx="5"/><path d="M7.667 23h2.75v3h-2.75v-3zm11.917 0h2.75v3h-2.75v-3zm-11-5h12.833a1.922 1.922 0 0 1 1.833 2v2a1.922 1.922 0 0 1-1.833 2H8.583a1.922 1.922 0 0 1-1.833-2v-2a1.922 1.922 0 0 1 1.833-2h.001zm0 1h1.833a1 1 0 0 1 0 2H8.583a1 1 0 0 1 0-2h.001zm11 0h1.833a1 1 0 0 1 0 2h-1.834a1 1 0 0 1 0-2h.001zm-7.334 1h5.5v2h-5.5v-2zM9.5 13h11l1.833 5H7.667L9.5 13zm.917 1h9.167l.916 4h-11l.917-4zM6.75 16h.917a.961.961 0 0 1 .917 1v1H6.75a1 1 0 0 1 0-2zm15.583 0h.917a1 1 0 0 1 0 2h-1.833v-1a.961.961 0 0 1 .916-1zM4 6a53.711 53.711 0 0 0 11-3 53.711 53.711 0 0 0 11 3v6s-7.333-1-11-3c-3.667 2-11 3-11 3V6zm0 7.03h.917V25H4V13.03zm21.083 0H26V25h-.917V13.03z" fill="#FFF"/></g></svg>