<svg width="30" height="30" viewBox="0 0 30 30" version="1.1" xmlns="http://www.w3.org/2000/svg"><title>sights-showplace</title><g stroke="none" stroke-width="1" fill="none" fill-rule="evenodd"><rect fill="#001E8C" fill-rule="nonzero" x="0" y="0" width="30" height="30" rx="5"/><path d="M20 12v6h1.5a3.5 3.5 0 1 1-3.5 3.5V20h-6v1.5A3.5 3.5 0 1 1 8.5 18H10v-6H8.5A3.5 3.5 0 1 1 12 8.5V10h6V8.5a3.5 3.5 0 1 1 3.5 3.5H20zm-8 0v6h6v-6h-6zM8.5 7a1.5 1.5 0 0 0 0 3H10V8.5A1.5 1.5 0 0 0 8.5 7zm13 0A1.5 1.5 0 0 0 20 8.5V10h1.5a1.5 1.5 0 0 0 0-3zm0 13H20v1.5a1.5 1.5 0 1 0 1.5-1.5zm-13 0a1.5 1.5 0 1 0 1.5 1.5V20H8.5z" fill="#FFF"/></g></svg>