<svg width="30" height="30" viewBox="0 0 30 30" version="1.1" xmlns="http://www.w3.org/2000/svg" xmlns:xlink="http://www.w3.org/1999/xlink"><title>sights-nature</title><defs><path id="a" d="M11.521 3.6L15 7h-2l3 3h-3l3 4h-3v2l-2 1v-3H7l3-4H7l3-3H8z"/><path id="b" d="M7.521 5.6L11 9H9l3 3H9l3 4H9v2l-2 1v-3H3l3-4H3l3-3H4z"/></defs><g stroke="none" stroke-width="1" fill="none" fill-rule="evenodd"><rect fill="#001E8C" fill-rule="nonzero" x="0" y="0" width="30" height="30" rx="5"/><g stroke-linejoin="round"><use fill="#FFF" fill-rule="evenodd" xlink:href="#a"/><path stroke="#001E8C" stroke-width="1" d="M14.207 7.5l3 3H14l3 4h-3.5v1.809l-3 1.5V14.5H6l3-4H5.793l3-3h-2.03l4.76-4.597L16.227 7.5h-2.02z"/></g><g stroke-linejoin="round"><use fill="#FFF" fill-rule="evenodd" xlink:href="#b"/><path stroke="#001E8C" stroke-width="1" d="M10.207 9.5l3 3H10l3 4H9.5v1.809l-3 1.5V16.5H2l3-4H1.793l3-3h-2.03l4.76-4.597L12.227 9.5h-2.02z"/></g><path d="M26.016 7.777S19 9 18 15c0 0-8 0-10 11h3s.009-8.507 8.731-9.582c.308-1.379 1.25-5.656 6.269-6.418l.016-2.223z" fill="#FFF"/><path d="M26.02 12a6.179 6.179 0 0 0-5.446 5.373S13 17.245 13 26h2.6s-.83-7 6.4-7c.223-1.1.372-3.887 4-4.493L26.02 12z" fill="#FFF"/><path d="M26.024 16a4.775 4.775 0 0 0-3.57 3.964s-5.4.5-4.82 6.038h2.535s-.84-4.723 4.119-4.265C24.3 18.782 26 18.349 26 18.349L26.024 16z" fill="#FFF"/></g></svg>