<svg width="30" height="30" viewBox="0 0 30 30" version="1.1" xmlns="http://www.w3.org/2000/svg"><g stroke="none" stroke-width="1" fill="none" fill-rule="evenodd"><rect fill="#001E8C" fill-rule="nonzero" x="0" y="0" width="30" height="30" rx="5"/><path d="M6 15h3a2.732 2.732 0 0 0 2.537 2A2.605 2.605 0 0 0 14 15h8l5 4H3l3-4zm0 5h18v6H6v-6zm8 0h2v2h-2v-2zm5 0h2v2h-2v-2zM8 23h3v3H8v-3z" fill="#FFF"/><path d="M11.05 7.007h.9C12.4 9.1 16.012 8.334 16 10.616c0 1.44-.9 2.371-4.507 2.371-3.607 0-4.493-.93-4.493-2.371 0-2.282 3.6-1.516 4.05-3.609zM9 14h5s-1.077 2-2.535 2C10.007 16 9 14 9 14zM12 4V2h-1v2H9v1h2v2h1V5h2V4z" fill="#FFF"/></g></svg>