<svg width="30" height="30" viewBox="0 0 30 30" version="1.1" xmlns="http://www.w3.org/2000/svg"><title>sights-sanatorium</title><g stroke="none" stroke-width="1" fill="none" fill-rule="evenodd"><rect fill="#001E8C" fill-rule="nonzero" x="0" y="0" width="30" height="30" rx="5"/><path d="M5 8h1v8.87H5V8zm4-3h1v6.058H9V5zm2 1h1v5.058h-1V6zm2 1h1v4.058h-1V7zm2-3h1v7.058h-1V4zm2-2h1v9.058h-1V2zm2 4h1v5.058h-1V6zm2 1h1v4.058h-1V7zm2-1h1v5.058h-1V6zm2 2h1v3.058h-1V8zm2 2h1v10h-1V10zM8 12h18v13H8V12zm2 2h2v2h-2v-2zm4 0h2v2h-2v-2zm4 0h2v2h-2v-2zm4 0h2v2h-2v-2zm-12 4h2v2h-2v-2zm4 0h2v2h-2v-2zm4 0h2v2h-2v-2zm4 0h2v2h-2v-2zM9 22h3v2H9v-2zm12 0h4v2h-4v-2zm-8 0h7v3h-7v-3zm1 1h5v3h-5v-3zM3 19h4v5H3v-5zm2 2h1v1H5v-1zm-2 0h1v1H3v-1zm13 2h1v3h-1v-3z" fill="#FFF"/></g></svg>