<svg width="30" height="30" viewBox="0 0 30 30" version="1.1" xmlns="http://www.w3.org/2000/svg"><title>sights-sanctuary</title><g stroke="none" stroke-width="1" fill="none" fill-rule="evenodd"><rect fill="#001E8C" fill-rule="nonzero" x="0" y="0" width="30" height="30" rx="5"/><path d="M11 8v2l2.738 1.208L16 13h6c.85 0 1.516.203 2.038.514.426.09.938.306 1.446.628 1.07.68 1.719 1.58 1.449 2.012-.153.244-.566.286-1.09.153.057.282.069.462.069.462v1.846L27 21v6h-3v-1l1-.532v-3.956L23 20l-1 7h-3v-1l1.37-.594.171-3.406L19 19l-2 1.324V27h-3v-.923l1-.676v-4.41L13 21v6h-3v-1l1-.609V21l-1-2v-4.479l-2.41 2.42-1.771-2.13L5 15H3v-2.769L8 10h1V8H6l2-2h3V4l2-1v3h2V4l2-1v5h-6z" fill="#FFF"/></g></svg>