<svg width="30" height="30" viewBox="0 0 30 30" version="1.1" xmlns="http://www.w3.org/2000/svg"><g stroke="none" stroke-width="1" fill="none" fill-rule="evenodd"><rect fill="#001E8C" fill-rule="nonzero" x="0" y="0" width="30" height="30" rx="5"/><path d="M7 12h19v11H7V12zm0-5h18l3 4H4l3-4zm3 5h5v3h-5v-3zm8 0h5v3h-5v-3zm1 0h1v2h-1v-2zm-8 0h1v2h-1v-2zm2 0h1v2h-1v-2zm8 0h1v2h-1v-2zm-11 5h5v4h-5v-4zm8 0h5v4h-5v-4zm1 1h1v2h-1v-2zm2 0h1v2h-1v-2zm-10 0h1v2h-1v-2zm2 0h1v2h-1v-2zM3 15h4v3H3v-3zm1 3h1v5H4v-5zM18 5h4v2h-4V5z" fill="#FFF"/></g></svg>