<svg width="545px" height="779px" viewBox="0 0 545 779" version="1.1" xmlns="http://www.w3.org/2000/svg" xmlns:xlink="http://www.w3.org/1999/xlink"> <polygon stroke="#95D7FA" fill="#EAF7FD" points="338.210962 616.495455 337.222097 622.404158 340.201431 628.357443 337.222097 651.18341 345.164865 653.167307 345.164865 660.114133 366.997924 671.028754 395.772147 689.880557 404.70378 713.695289 392.799182 724.611502 372.950223 712.706525 349.133065 703.769432 333.252305 708.732361 335.236405 723.622738 321.347707 720.643707 313.404938 710.716258 298.519413 713.695289 292.995463 712.905551 290.848941 689.651279 283.758094 667.497225 290.407853 661.738191 286.863226 639.141502 303.251953 623.189119 296.167475 620.533307 294.016176 606.732004 297.554434 604.964648 303.613422 610.644072 309.672411 606.856197 312.701109 612.534029 318.379519 609.884586"></polygon> <polygon stroke="#95D7FA" fill="#D4EFFD" points="292.995463 712.905551 284.629123 711.711391 279.361545 716.276266 267.361405 709.143152 262.044463 691.417043 252.295941 682.554785 251.413765 670.153037 235.017076 670.59408 232.360994 679.015295 216.405393 687.879145 206.658463 684.333287 201.33993 677.684205 194.698132 676.800527 191.151912 668.379311 185.193243 665.873168 185.112032 662.887768 177.156525 663.266715 176.783909 658.720947 175.390581 654.821617 175.825299 654.75952 174.885798 643.956355 182.083334 628.058107 204.040598 631.088088 208.967408 636.386973 220.317859 624.65077 230.924672 621.620789 227.894381 607.235143 233.574384 605.724133 238.058513 599.834537 241.902507 607.235143 254.772085 603.453637 283.167323 601.176773 286.955584 606.482027 293.766173 606.856197 294.022545 606.732004 296.167475 620.533307 303.251953 623.189119 286.863226 639.141502 290.401484 661.738191 283.758094 667.497225 290.848941 689.651279"></polygon> <polygon stroke="#95D7FA" fill="#CAEBFC" points="279.361545 716.276266 269.738821 724.611502 282.645023 726.5954 294.551214 722.627605 302.487613 731.558328 294.551214 738.505154 299.514648 744.458439 287.602088 755.373059 275.69749 739.493918 273.71339 747.4311 256.837396 757.356957 259.81673 775.219996 224.088604 777.203893 227.067938 761.324752 212.182413 739.493918 208.214214 723.622738 190.094575 711.326076 190.792035 694.682672 185.871595 690.894797 185.193243 665.873168 191.151912 668.379311 194.698132 676.800527 201.33993 677.684205 206.658463 684.326918 216.405393 687.879145 232.360994 679.015295 235.017076 670.59408 251.413765 670.153037 252.295941 682.561154 262.044463 691.417043 267.361405 709.143152"></polygon> <polygon stroke="#95D7FA" fill="#EAF7FD" points="94.0663783 666.078564 82.1792962 674.998141 82.1792962 687.89666 67.2953636 691.864455 58.3621378 707.737227 47.4464047 706.748463 40.498871 714.690422 21.6451466 709.727494 23.6292463 700.79677 13.7023783 700.79677 1.79618768 686.901527 17.6769472 679.954701 47.4464047 640.267197 49.6040733 640.267197 53.3557097 646.984744 66.2316569 653.422061 75.3193431 654.933072 86.1602346 672.012742"></polygon> <polygon stroke="#95D7FA" fill="#D4EFFD" points="102.028255 660.114133 86.1602346 672.012742 75.3129736 654.933072 66.2316569 653.422061 53.3557097 646.984744 49.6040733 640.267197 60.3478299 640.267197 61.336695 623.394514 105.642947 567.08749 104.467774 601.936258 98.7877713 604.585701 98.7877713 610.263533 104.660452 617.740566 98.4087859 624.65077 98.0298006 654.933072 100.634927 661.152256"></polygon> <polygon stroke="#95D7FA" fill="#C0E7FC" points="190.094575 711.326076 180.428856 704.764566 166.532196 705.75333 158.595798 696.828975 154.627598 703.769432 149.662572 700.79677 142.715038 686.901527 144.699138 656.139969 134.778639 656.139969 131.799305 665.070693 123.861314 663.086795 114.92968 657.135102 102.028255 660.114133 100.634927 661.152256 98.0361701 654.933072 98.4087859 624.65077 104.666821 617.740566 107.117487 620.869264 114.692416 617.081389 131.350255 635.248541 141.57012 637.519037 141.06056 643.937248 149.899836 649.634186 158.987522 657.209936 175.390581 654.821617 176.783909 658.720947 177.156525 663.261939 185.112032 662.887768 185.865226 690.901166 190.792035 694.682672"></polygon> <polygon stroke="#95D7FA" fill="#C0E7FC" points="350.128299 587.674805 349.133065 578.744082 342.185531 589.658703 350.128299 602.558814 345.164865 611.489537 339.212566 610.494404 338.210962 616.495455 318.379519 609.884586 312.701109 612.534029 309.672411 606.856197 303.613422 610.644072 297.554434 604.964648 293.766173 606.856197 286.955584 606.482027 283.167323 601.176773 254.772085 603.453637 241.902507 607.235143 238.058513 599.834537 239.63178 597.775805 233.574384 584.90117 234.706563 546.290002 245.311783 546.668949 246.822947 537.582189 254.772085 535.685863 253.639906 528.116482 241.523522 527.356996 244.932798 510.328277 249.47266 508.430359 249.851645 497.453641 249.641452 503.580477 261.210059 502.752527 265.751513 508.430359 271.808909 506.919348 285.065434 508.430359 292.635587 501.241516 309.291833 500.860977 316.110384 508.430359 313.833287 517.517119 323.299959 528.495428 330.497496 528.495428 350.184032 576.572303 349.313003 580.372916"></polygon> <polygon stroke="#95D7FA" fill="#EAF7FD" points="451.002094 497.00623 453.333331 500.351469 480.131416 511.267682 495.015349 506.303162 513.869073 516.230611 513.869073 525.161334 522.802299 536.077547 522.802299 554.92935 514.864308 565.843971 527.765733 570.8069 534.713267 597.594293 543.638531 603.553947 543.638531 638.27693 537.686232 650.188277 532.722798 667.05459 509.900874 670.033621 490.051915 660.114133 476.161625 669.038488 465.245891 661.102898 458.298358 665.070693 460.282457 686.901527 449.365132 686.901527 446.385798 677.970803 439.438264 674.003008 429.516173 653.167307 420.58454 648.204379 421.579774 639.272064 411.652906 630.34134 409.668806 617.44123 395.772147 596.605529 405.699015 584.695775 407.684707 553.938994 402.963314 542.919287 411.135384 542.502127 412.65451 533.415367 414.923645 530.385385 414.923645 501.241516 438.019457 502.37358 443.318883 498.211535"></polygon> <polygon stroke="#95D7FA" fill="#D4EFFD" points="447.381032 444.786416 446.385798 450.738109 437.460534 462.643086 437.460534 477.531871 451.002094 497.00623 443.318883 498.211535 438.019457 502.37358 414.923645 501.241516 414.923645 530.385385 412.65451 533.415367 411.135384 542.502127 402.963314 542.919287 401.730815 540.045342 387.835748 536.077547 380.886622 526.150098 357.069463 515.235477 350.128299 503.3305 339.212566 514.246713 347.148965 531.113027 355.085364 525.154965 368.982023 537.066311 373.945457 532.103383 383.867548 542.02924 395.772147 558.897145 398.751481 573.779561 388.830982 589.658703 375.929557 589.658703 375.929557 600.573324 383.867548 600.573324 388.830982 607.521742 382.870721 615.457332 384.861191 625.378412 369.970889 635.304268 368.982023 625.378412 363.023355 616.452465 366.002689 603.553947 360.048798 597.594293 350.128299 587.674805 349.313003 580.372916 350.184032 576.572303 330.497496 528.495428 323.299959 528.495428 313.833287 517.517119 316.110384 508.430359 309.291833 500.860977 292.635587 501.241516 285.065434 508.430359 271.808909 506.91298 265.751513 508.430359 261.210059 502.752527 249.641452 503.580477 249.851645 497.453641 252.501358 487.234818 246.443962 486.855871 238.494824 481.929564 232.47246 481.362736 229.219238 447.491586 217.730249 444.617641 222.513745 436.955912 213.419689 433.602711 210.067739 402.002057 199.530991 386.677006 201.446619 375.662076 210.547044 375.18282 215.336909 380.929117 237.343537 379.169721 237.735261 383.503725 243.794249 389.941043 243.413672 395.620467 273.707021 398.26991 276.356733 403.189848 272.189487 406.597184 274.079636 416.816008 274.458622 428.552211 281.656158 424.012811 288.847326 430.071182 284.684856 441.426846 299.452545 456.565609 333.147208 457.704041 340.717361 451.64567 341.84954 445.588891 446.828478 448.107773"></polygon> <polygon stroke="#95D7FA" fill="#DDF2FD" points="141.06056 643.937248 141.57012 637.525406 131.350255 635.248541 114.692416 617.081389 107.117487 620.869264 98.7877713 610.263533 98.7877713 604.585701 104.467774 601.936258 105.642947 567.08749 119.893114 548.976066 147.678472 488.448084 137.415613 474.976369 176.062563 473.345943 184.683683 468.556566 191.387584 472.866686 192.346194 481.48852 200.967314 492.981115 220.598117 492.981115 221.563097 482.445441 232.57278 482.445441 232.47246 481.362736 238.494824 481.929564 246.443962 486.855871 252.501358 487.234818 249.851645 497.453641 249.47266 508.430359 244.932798 510.328277 241.523522 527.356996 253.639906 528.116482 254.772085 535.685863 246.822947 537.582189 245.311783 546.668949 234.706563 546.290002 233.574384 584.90117 239.625411 597.775805 233.574384 605.724133 227.894381 607.235143 230.924672 621.620789 220.317859 624.65077 208.961038 636.386973 204.040598 631.088088 182.083334 628.058107 174.885798 643.956355 175.831669 654.75952 158.987522 657.209936 149.899836 649.634186"></polygon> <polygon stroke="#95D7FA" fill="#DDF2FD" points="410.0669 402.610283 430.50663 427.912141 434.481199 440.812252 447.381032 444.786416 446.828478 448.107773 341.84954 445.588891 340.717361 451.64567 333.147208 457.704041 299.452545 456.565609 284.684856 441.426846 288.847326 430.071182 281.656158 424.006443 274.458622 428.552211 274.086006 416.816008 272.189487 406.597184 276.356733 403.189848 273.707021 398.26991 243.413672 395.620467 243.794249 389.941043 237.735261 383.503725 237.343537 379.169721 251.251343 378.056764 251.730648 360.343393 245.983765 352.680072 245.983765 336.875764 241.673205 337.35502 233.529798 317.719848 233.529798 315.406363 244.068138 316.290041 244.068138 323.466145 269.452194 327.776266 270.882147 335.439588 288.124387 338.791197 299.619745 323.945402 324.046783 325.860834 320.209158 341.185885 325.478328 347.890695 334.099449 347.411439 334.099449 352.680072 340.804941 356.990193 339.367026 361.300314 348.946757 356.033273 347.988147 364.653514 356.609267 368.957266 354.693639 388.113182 398.272176 392.902559 398.272176 400.086625"></polygon> <polygon stroke="#95D7FA" fill="#CAEBFC" points="137.415613 474.976369 131.799305 467.606014 127.829513 451.726873 64.3160293 383.261709 79.1999619 369.368057 95.0807214 348.532357 95.0807214 320.748238 93.1332463 318.428383 94.5154282 301.866182 115.072994 299.422135 132.69422 295.995693 145.340865 290.789156 131.525416 283.722914 152.119607 294.26018 161.699337 288.034627 168.877765 292.344748 171.279067 289.470803 166.968507 283.24525 166.009897 273.666496 178.455903 286.117602 183.245768 286.117602 178.935208 296.654869 184.683683 297.132533 187.077023 300.96499 196.177449 293.780924 203.362246 295.2171 203.362246 300.006477 215.336909 301.442654 214.023199 301.288209 223.95166 311.973551 228.741525 311.500664 232.57278 315.32516 233.529798 315.406363 233.529798 317.719848 241.673205 337.35502 245.983765 336.875764 245.983765 352.680072 251.730648 360.337025 251.251343 378.056764 215.336909 380.929117 210.547044 375.18282 201.446619 375.662076 199.530991 386.677006 210.067739 402.002057 213.419689 433.602711 222.513745 436.955912 217.730249 444.617641 229.219238 447.491586 232.57278 482.445441 221.556727 482.445441 220.604487 492.981115 200.967314 492.981115 192.346194 481.48852 191.387584 472.866686 184.683683 468.556566 176.062563 473.345943"></polygon> <polygon stroke="#95D7FA" fill="#D4EFFD" points="93.1332463 318.428383 74.2365279 295.938373 72.2587977 250.292807 51.4146041 246.325012 50.4193695 207.627865 64.3160293 203.658477 68.2842287 191.748723 66.0135015 198.571357 96.088695 201.364098 98.4836276 207.104027 103.751205 207.104027 107.584053 212.379029 114.289545 210.457227 111.415308 246.853627 117.641496 244.458939 118.120801 250.684492 123.861314 251.163748 125.776941 276.061184 132.482434 276.061184 131.525416 283.722914 145.340865 290.789156 132.69422 295.995693 115.072994 299.422135 94.5154282 301.866182"></polygon> <polygon stroke="#95D7FA" fill="#F2FAFF" points="351.117164 243.345982 341.196666 257.241225 351.117164 269.15098 345.164865 280.060824 347.148965 288.002783 359.053563 291.970578 360.048798 299.90776 369.970889 308.838484 382.870721 304.870689 381.881856 295.938373 403.714915 306.854586 403.714915 322.732135 409.668806 326.701523 414.63224 319.753105 426.536839 330.669318 424.552739 335.632246 426.536839 346.548459 444.401698 354.484049 447.381032 374.330986 446.385798 384.256842 439.438264 404.09741 423.563874 400.129615 409.668806 402.113512 410.07327 402.610283 398.272176 400.086625 398.272176 392.902559 354.693639 388.113182 356.609267 368.957266 347.988147 364.647145 348.946757 356.033273 339.367026 361.300314 340.804941 356.990193 334.099449 352.680072 334.099449 347.411439 325.478328 347.890695 320.209158 341.185885 324.040413 325.860834 299.619745 323.945402 288.124387 338.791197 270.888516 335.439588 269.445824 327.776266 244.068138 323.466145 244.068138 316.283672 232.57278 315.32516 228.741525 311.494295 223.958029 311.973551 214.023199 301.28184 215.336909 301.442654 215.336909 279.892049 231.61417 279.892049 230.657152 269.356375 226.352962 268.397863 224.908677 261.215389 233.052085 261.699422 232.57278 255.953125 228.392795 249.410721 231.61417 248.769059 233.529798 239.671154 240.23529 236.317953 320.694833 241.10733 319.729853 246.374371 349.693581 245.342617"></polygon> <polygon stroke="#95D7FA" fill="#CAEBFC" points="321.366815 81.8923873 332.26344 91.5268689 330.27934 99.4688279 343.180765 105.42052 343.180765 111.372213 349.133065 116.336734 350.128299 135.186945 335.236405 133.203047 339.212566 150.070953 329.284106 158.012912 330.27934 163.966197 321.347707 164.954961 323.331806 182.816408 342.185531 210.606895 337.222097 227.473209 344.16963 232.431361 351.117164 243.345982 349.693581 245.342617 319.736223 246.374371 320.688463 241.10733 240.23529 236.317953 233.529798 239.671154 231.61417 248.769059 228.392795 249.410721 209.588434 220.034389 225.867287 199.448666 213.419689 187.475223 223.95166 173.108684 223.497833 160.929846 276.630622 161.135242 277.587639 125.702131 318.777613 125.224467"></polygon> <polygon stroke="#95D7FA" fill="#DDF2FD" points="66.0135015 198.571357 68.2842287 191.748723 49.4305044 181.827643 61.3430645 170.913023 58.3621378 153.049984 68.2842287 141.146598 60.3478299 135.186945 65.3112639 122.288426 64.2602962 125.019072 106.625443 131.45002 106.625443 144.380383 153.557522 146.775072 153.078217 160.657578 223.497833 160.929846 223.958029 173.108684 213.419689 187.475223 225.867287 199.448666 209.588434 220.034389 232.57278 255.953125 233.052085 261.694645 224.908677 261.221758 226.346592 268.397863 230.657152 269.356375 231.61417 279.892049 215.336909 279.892049 215.336909 301.442654 203.362246 300.006477 203.362246 295.2171 196.177449 293.780924 187.077023 300.96499 184.683683 297.132533 178.935208 296.654869 183.245768 286.117602 178.455903 286.117602 166.003528 273.666496 166.968507 283.24525 171.279067 289.470803 168.884135 292.344748 161.699337 288.034627 152.119607 294.26018 131.525416 283.722914 132.482434 276.061184 125.776941 276.061184 123.861314 251.163748 118.114431 250.684492 117.635126 244.458939 111.415308 246.853627 114.289545 210.463596 107.584053 212.379029 103.751205 207.110395 98.4836276 207.110395 96.088695 201.364098"></polygon> <polygon stroke="#95D7FA" fill="#F2FAFF" points="48.4352698 1.2308709 171.49563 1.2308709 172.484496 21.0762152 182.412956 26.0343668 184.397056 37.9441209 205.23488 44.8909467 205.23488 30.0085307 216.150613 24.0568381 216.150613 12.1454918 233.020238 10.1615943 234.015472 21.0762152 237.983672 27.0295 237.983672 46.8764365 242.947106 56.7959242 263.78493 46.8764365 290.581422 61.7588525 297.530548 56.7959242 305.466947 62.7539857 306.462182 68.7072705 321.366815 81.8923873 318.777613 125.224467 277.587639 125.702131 276.630622 161.141611 153.078217 160.662355 153.557522 146.775072 106.625443 144.380383 106.625443 131.45002 64.2602962 125.019072 65.3112639 122.288426 84.1649883 116.336734 75.2317625 69.6960348 62.3319296 55.8071598 63.3207947 37.9441209"></polygon> <path d="M237.150859,80.9593504 C235.053701,80.9593504 233.34349,79.2493135 233.34349,77.1539611 C233.34349,75.0570164 235.053701,73.3469795 237.150859,73.3469795 C239.246425,73.3469795 240.956636,75.0570164 240.956636,77.1539611 C240.956636,79.2493135 239.246425,80.9593504 237.150859,80.9593504 M139.305762,193.323422 C137.203827,193.323422 135.499985,191.618162 135.499985,189.516441 C135.499985,187.421088 137.203827,185.715828 139.305762,185.715828 C141.402921,185.715828 143.113132,187.421088 143.113132,189.516441 C143.113132,191.618162 141.402921,193.323422 139.305762,193.323422 M327.244273,231.10027 C325.147114,231.10027 323.436903,229.396602 323.436903,227.293289 C323.436903,225.197936 325.147114,223.494268 327.244273,223.494268 C329.339839,223.494268 331.051642,225.197936 331.051642,227.293289 C331.051642,229.396602 329.339839,231.10027 327.244273,231.10027 M108.19234,284.893191 C106.090405,284.893191 104.386563,283.189523 104.386563,281.09417 C104.386563,278.990857 106.090405,277.287189 108.19234,277.287189 C110.289499,277.287189 111.99334,278.990857 111.99334,281.09417 C111.99334,283.189523 110.289499,284.893191 108.19234,284.893191 M336.593109,288.513883 C334.497543,288.513883 332.792109,286.808623 332.792109,284.71327 C332.792109,282.611549 334.497543,280.906289 336.593109,280.906289 C338.695044,280.906289 340.400478,282.611549 340.400478,284.71327 C340.400478,286.808623 338.695044,288.513883 336.593109,288.513883 M180.47822,362.359135 C178.376284,362.359135 176.67085,360.647506 176.67085,358.552154 C176.67085,356.450432 178.376284,354.745172 180.47822,354.745172 C182.573786,354.745172 184.285589,356.450432 184.285589,358.552154 C184.285589,360.647506 182.573786,362.359135 180.47822,362.359135 M313.199522,393.349971 C311.102364,393.349971 309.392152,391.646303 309.392152,389.544582 C309.392152,387.447637 311.102364,385.743969 313.199522,385.743969 C315.295088,385.743969 317.005299,387.447637 317.005299,389.544582 C317.005299,391.646303 315.295088,393.349971 313.199522,393.349971 M338.925938,503.126697 C336.82878,503.126697 335.118569,501.41666 335.118569,499.319715 C335.118569,497.224363 336.82878,495.514326 338.925938,495.514326 C341.027874,495.514326 342.731716,497.224363 342.731716,499.319715 C342.731716,501.41666 341.027874,503.126697 338.925938,503.126697 M315.643818,588.658793 C313.54666,588.658793 311.842818,586.953533 311.842818,584.851811 C311.842818,582.754867 313.54666,581.051199 315.643818,581.051199 C317.745754,581.051199 319.449595,582.754867 319.449595,584.851811 C319.449595,586.953533 317.745754,588.658793 315.643818,588.658793 M197.664727,606.278223 C195.569161,606.278223 193.863727,604.574555 193.863727,602.471242 C193.863727,600.375889 195.569161,598.672221 197.664727,598.672221 C199.766663,598.672221 201.472097,600.375889 201.472097,602.471242 C201.472097,604.574555 199.766663,606.278223 197.664727,606.278223 M457.121592,638.589004 C455.026026,638.589004 453.315815,636.878967 453.315815,634.782023 C453.315815,632.68667 455.026026,630.976633 457.121592,630.976633 C459.218751,630.976633 460.928962,632.68667 460.928962,634.782023 C460.928962,636.878967 459.218751,638.589004 457.121592,638.589004 M324.34615,654.740414 C322.248991,654.740414 320.54515,653.030377 320.54515,650.935025 C320.54515,648.83808 322.248991,647.128043 324.34615,647.128043 C326.448085,647.128043 328.151927,648.83808 328.151927,650.935025 C328.151927,653.030377 326.448085,654.740414 324.34615,654.740414 M273.165613,655.163943 C271.063677,655.163943 269.358243,653.460275 269.358243,651.36333 C269.358243,649.261609 271.063677,647.551572 273.165613,647.551572 C275.261179,647.551572 276.972982,649.261609 276.972982,651.36333 C276.972982,653.460275 275.261179,655.163943 273.165613,655.163943 M91.859346,658.977293 C89.7621877,658.977293 88.058346,657.265664 88.058346,655.170311 C88.058346,653.06859 89.7621877,651.36333 91.859346,651.36333 C93.9612815,651.36333 95.6651232,653.06859 95.6651232,655.170311 C95.6651232,657.265664 93.9612815,658.977293 91.859346,658.977293 M149.202375,668.933402 C147.10044,668.933402 145.396598,667.229734 145.396598,665.134381 C145.396598,663.031068 147.10044,661.3274 149.202375,661.3274 C151.299534,661.3274 153.009745,663.031068 153.009745,665.134381 C153.009745,667.229734 151.299534,668.933402 149.202375,668.933402 M73.8320645,681.42909 C71.730129,681.42909 70.0262874,679.719053 70.0262874,677.622109 C70.0262874,675.526756 71.730129,673.816719 73.8320645,673.816719 C75.9292229,673.816719 77.639434,675.526756 77.639434,677.622109 C77.639434,679.719053 75.9292229,681.42909 73.8320645,681.42909 M236.827607,748.72557 C234.730449,748.72557 233.026607,747.015533 233.026607,744.918588 C233.026607,742.823236 234.730449,741.113199 236.827607,741.113199 C238.929543,741.113199 240.633384,742.823236 240.633384,744.918588 C240.633384,747.015533 238.929543,748.72557 236.827607,748.72557" stroke="#45B8F6" stroke-width="2" fill="#FFFFFF"></path></svg>