<svg fill="red" height="512pt" viewBox="-34 0 512 512" width="512pt" xmlns="http://www.w3.org/2000/svg"><path d="m221.546875 172.28125c-27.164063 0-49.265625 22.101562-49.265625 49.269531 0 27.164063 22.101562 49.265625 49.265625 49.265625 27.167969 0 49.265625-22.101562 49.265625-49.265625 0-27.167969-22.097656-49.269531-49.265625-49.269531zm0 0"/><path d="m378.207031 64.890625c-41.84375-41.84375-97.480469-64.890625-156.660156-64.890625-59.175781 0-114.8125 23.046875-156.65625 64.890625s-64.890625 97.480469-64.890625 156.65625c0 59.179687 23.046875 114.816406 64.890625 156.660156l117.703125 117.707031c10.375 10.375 24.207031 16.085938 38.953125 16.085938 14.742187 0 28.574219-5.710938 38.949219-16.085938l117.710937-117.707031c41.847657-41.84375 64.890625-97.480469 64.890625-156.660156 0-59.175781-23.042968-114.8125-64.890625-156.65625zm-156.660156 235.925781c-43.707031 0-79.265625-35.558594-79.265625-79.269531 0-43.707031 35.558594-79.265625 79.265625-79.265625s79.265625 35.558594 79.265625 79.265625c0 43.710937-35.558594 79.269531-79.265625 79.269531zm0 0"/></svg>