<svg width="100" height="100" viewBox="0 0 100 100" fill="none" xmlns="http://www.w3.org/2000/svg">
<rect width="100" height="100" rx="10" fill="#183F7F"/>
<path d="M38.3265 15C37.6349 15 36.9717 15.2726 36.4827 15.7579C35.9937 16.2431 35.719 16.9013 35.719 17.5875V25.35H27.8963C27.2047 25.35 26.5415 25.6226 26.0525 26.1079C25.5635 26.5931 25.2887 27.2513 25.2887 27.9375V44.3733L20.2127 46.219C19.8738 46.3419 19.5642 46.5333 19.3037 46.781C19.0431 47.0287 18.8372 47.3274 18.6989 47.6582C18.5607 47.989 18.4932 48.3446 18.5006 48.7026C18.508 49.0606 18.5902 49.4132 18.7421 49.7381L26.8602 67.0536C27.6276 66.8017 28.438 66.7041 29.2438 66.7666C30.0497 66.8291 30.8349 67.0504 31.5536 67.4176C32.2722 67.7847 32.9099 68.2904 33.4293 68.905C33.9487 69.5196 34.3394 70.2308 34.5786 70.997C34.5786 71.0108 34.5925 71.0418 34.6099 71.0901C34.9305 71.9422 35.3693 72.7457 35.9137 73.4775C36.8732 74.7437 37.8745 75.375 39.1957 75.375C40.5169 75.375 41.5182 74.7471 42.4743 73.4775C43.0372 72.72 43.4869 71.8856 43.8093 71.0004C44.193 69.77 44.9632 68.6937 46.0073 67.9286C47.0513 67.1635 48.3146 66.7497 49.6126 66.7478C50.9105 66.7459 52.175 67.1558 53.2214 67.9179C54.2678 68.6798 55.0412 69.7539 55.4286 70.9831L55.4633 71.0797C55.7875 71.9344 56.2298 72.7402 56.7775 73.474C57.7406 74.7505 58.7454 75.375 60.0561 75.375C61.3668 75.375 62.3681 74.7471 63.3347 73.4775C63.8999 72.7165 64.3519 71.8788 64.6767 70.9901C64.9241 70.2032 65.3312 69.4749 65.873 68.8501C66.4149 68.2253 67.0799 67.7172 67.8271 67.3572C68.5743 66.9971 69.3879 66.7927 70.2178 66.7565C71.0476 66.7203 71.8762 66.8531 72.6523 67.1468L81.2329 49.7898C81.3949 49.4626 81.4854 49.1051 81.4984 48.7408C81.5114 48.3764 81.4467 48.0135 81.3085 47.6757C81.1703 47.3379 80.9618 47.0329 80.6965 46.7807C80.4312 46.5285 80.1152 46.3347 79.7692 46.2122L73.9631 44.156V27.9375C73.9631 27.2513 73.6883 26.5931 73.1993 26.1079C72.7103 25.6226 72.0471 25.35 71.3555 25.35H63.5328V17.5875C63.5328 16.9013 63.2581 16.2431 62.7691 15.7579C62.2801 15.2726 61.6169 15 60.9253 15H38.3265ZM58.3177 25.35H40.9341V20.175H58.3177V25.35ZM68.748 30.525V42.3102L53.4607 36.8972C50.9741 36.0176 48.2557 36.0299 45.7772 36.9317L30.5039 42.4758V30.525H68.748Z" fill="white"/>
<path d="M73.5445 72.2223L73.534 72.1851C73.3849 71.6014 73.0613 71.085 72.6119 70.7138C72.1625 70.3425 71.6117 70.1366 71.0426 70.1269C70.4734 70.1173 69.9167 70.3044 69.4564 70.6603C68.9961 71.0161 68.6571 71.5212 68.4905 72.0996V72.107L68.4765 72.1405L68.4065 72.3562C67.9627 73.6183 67.3535 74.8076 66.597 75.889C65.2425 77.8042 63.3105 79.4219 60.5 79.4219C57.6895 79.4219 55.754 77.8042 54.3995 75.889C53.5996 74.7448 52.965 73.4801 52.5165 72.1368L52.506 72.1033C52.3418 71.5314 52.0089 71.0308 51.5566 70.6752C51.1042 70.3196 50.5562 70.1278 49.9935 70.1282C49.4308 70.1287 48.883 70.3212 48.4311 70.6775C47.9792 71.0338 47.647 71.5349 47.4835 72.107V72.1108L47.4695 72.1479C47.3512 72.5139 47.2168 72.8737 47.067 73.2264C46.7555 73.9627 46.2725 74.937 45.597 75.889C44.2495 77.8042 42.321 79.4219 39.5 79.4219C36.679 79.4219 34.747 77.8042 33.396 75.889C32.5997 74.7469 31.9685 73.4847 31.5235 72.1442L31.513 72.1033C31.3476 71.5247 31.0096 71.0188 30.55 70.662C30.0904 70.3053 29.5341 70.1169 28.965 70.1253C28.3958 70.1337 27.8447 70.3384 27.3946 70.7086C26.9445 71.0788 26.6198 71.5944 26.4695 72.1777L26.459 72.2112L26.396 72.412C25.9841 73.6476 25.3886 74.8052 24.632 75.8407C23.288 77.6629 21.146 79.4219 17.625 79.4219C16.9288 79.4219 16.2612 79.7157 15.7689 80.2387C15.2766 80.7618 15 81.4712 15 82.2109C15 82.9506 15.2766 83.66 15.7689 84.1831C16.2612 84.7062 16.9288 85 17.625 85C23.134 85 26.6795 82.1105 28.7655 79.2843L29 78.9533L29.196 79.2359C31.128 81.9692 34.446 85 39.5 85C44.554 85 47.872 81.9692 49.8005 79.2359L50 78.9458L50.203 79.2396C52.135 81.9692 55.453 85 60.5 85C65.547 85 68.865 81.9692 70.797 79.2359L70.9895 78.957C71.063 79.0686 71.14 79.1727 71.2205 79.2805C73.303 82.1105 76.8555 85 82.375 85C83.0712 85 83.7389 84.7062 84.2312 84.1831C84.7235 83.66 85 82.9506 85 82.2109C85 81.4712 84.7235 80.7618 84.2312 80.2387C83.7389 79.7157 83.0712 79.4219 82.375 79.4219C78.833 79.4219 76.6945 77.6629 75.3575 75.8444C74.5643 74.755 73.9513 73.5301 73.5445 72.2223Z" fill="white"/>
</svg>
