<svg width="100" height="100" viewBox="0 0 100 100" fill="none" xmlns="http://www.w3.org/2000/svg">
<rect width="100" height="100" rx="10" fill="#183F7F"/>
<path d="M80.702 40.2006L75.914 26.0646C75.2194 24.0064 73.8835 22.2161 72.0959 20.9479C70.3084 19.6796 68.1601 18.9981 65.9565 19H34.0435C31.8399 18.9981 29.6916 19.6796 27.9041 20.9479C26.1165 22.2161 24.7806 24.0064 24.086 26.0646L19.298 40.2006C18.0248 40.7249 16.9375 41.6079 16.1727 42.7386C15.408 43.8693 15 45.1973 15 46.5556V63.7778C15 66.3198 16.414 68.5173 18.5 69.7126V77.5556C18.5 78.4691 18.8687 79.3452 19.5251 79.9911C20.1815 80.6371 21.0717 81 22 81H25.5C26.4283 81 27.3185 80.6371 27.9749 79.9911C28.6313 79.3452 29 78.4691 29 77.5556V70.6667H71V77.5556C71 78.4691 71.3687 79.3452 72.0251 79.9911C72.6815 80.6371 73.5717 81 74.5 81H78C78.9283 81 79.8185 80.6371 80.4749 79.9911C81.1313 79.3452 81.5 78.4691 81.5 77.5556V69.7126C82.5619 69.1132 83.4445 68.2491 84.059 67.2072C84.6734 66.1653 84.998 64.9824 85 63.7778V46.5556C85 45.1973 84.592 43.8693 83.8273 42.7386C83.0625 41.6079 81.9752 40.7249 80.702 40.2006ZM34.0435 25.8889H65.953C67.4615 25.8889 68.7985 26.8327 69.2745 28.2449L73.1455 39.6667H26.8545L30.722 28.2449C30.9542 27.5587 31.4 26.9619 31.9962 26.5391C32.5923 26.1162 33.3086 25.8887 34.0435 25.8889ZM27.25 60.3333C26.5603 60.3331 25.8775 60.1992 25.2404 59.9393C24.6033 59.6793 24.0245 59.2984 23.537 58.8183C23.0495 58.3382 22.6628 57.7684 22.3991 57.1412C22.1354 56.5141 21.9998 55.8419 22 55.1632C22.0002 54.4845 22.1363 53.8125 22.4004 53.1855C22.6646 52.5585 23.0516 51.9889 23.5394 51.5091C24.0273 51.0294 24.6063 50.6488 25.2436 50.3893C25.8809 50.1298 26.5638 49.9963 27.2535 49.9966C28.6464 49.997 29.982 50.542 30.9665 51.5116C31.9511 52.4811 32.504 53.7959 32.5035 55.1667C32.503 56.5374 31.9493 57.8518 30.9641 58.8208C29.9788 59.7897 28.6429 60.3338 27.25 60.3333ZM72.75 60.3333C72.0603 60.3331 71.3775 60.1992 70.7404 59.9393C70.1033 59.6793 69.5245 59.2984 69.037 58.8183C68.5495 58.3382 68.1628 57.7684 67.8991 57.1412C67.6354 56.5141 67.4998 55.8419 67.5 55.1632C67.5002 54.4845 67.6363 53.8125 67.9004 53.1855C68.1646 52.5585 68.5516 51.9889 69.0394 51.5091C69.5273 51.0294 70.1064 50.6488 70.7436 50.3893C71.3809 50.1298 72.0638 49.9963 72.7535 49.9966C74.1463 49.997 75.482 50.542 76.4665 51.5116C77.4511 52.4811 78.004 53.7959 78.0035 55.1667C78.003 56.5374 77.4493 57.8518 76.4641 58.8208C75.4788 59.7897 74.1428 60.3338 72.75 60.3333Z" fill="white"/>
</svg>
