<svg width="100" height="100" viewBox="0 0 100 100" fill="none" xmlns="http://www.w3.org/2000/svg">
<rect width="100" height="100" rx="10" fill="#183F7F"/>
<path d="M81.5 29.0735C81.5105 28.5625 81.4755 23.946 76.95 19.501C72.4945 15.126 68.0005 15 67.5 15H32.486C31.6495 15 27.2605 15.2205 23.008 19.557C18.626 24.023 18.5 28.5065 18.5 29V39.5H15V50H18.5V71C18.5 73.569 19.921 75.8055 22 77.0235V81.5C22 82.4283 22.3687 83.3185 23.0251 83.9749C23.6815 84.6313 24.5717 85 25.5 85H29C29.9283 85 30.8185 84.6313 31.4749 83.9749C32.1313 83.3185 32.5 82.4283 32.5 81.5V78H67.5V81.5C67.5 82.4283 67.8687 83.3185 68.5251 83.9749C69.1815 84.6313 70.0717 85 71 85H74.5C75.4283 85 76.3185 84.6313 76.9749 83.9749C77.6313 83.3185 78 82.4283 78 81.5V77.0305C79.0619 76.4215 79.9445 75.5435 80.559 74.4848C81.1734 73.426 81.498 72.2241 81.5 71V50H85V39.5H81.5V29.0735ZM39.5 22H60.5V29H39.5V22ZM30.75 71C29.3571 70.9995 28.0215 70.4458 27.037 69.4606C26.0524 68.4753 25.4995 67.1394 25.5 65.7465C25.5005 64.3537 26.0542 63.018 27.0394 62.0335C28.0247 61.0489 29.3606 60.496 30.7535 60.4965C32.1464 60.497 33.482 61.0507 34.4665 62.0359C35.4511 63.0212 36.004 64.3572 36.0035 65.75C36.003 67.1428 35.4493 68.4785 34.4641 69.463C33.4788 70.4476 32.1429 71.0005 30.75 71ZM46.5 53.5H25.5V36H46.5V53.5ZM69.25 71C67.8572 70.9995 66.5215 70.4458 65.537 69.4606C64.5524 68.4753 63.9995 67.1394 64 65.7465C64.0005 64.3537 64.5542 63.018 65.5394 62.0335C66.5247 61.0489 67.8606 60.496 69.2535 60.4965C70.6463 60.497 71.982 61.0507 72.9665 62.0359C73.9511 63.0212 74.504 64.3572 74.5035 65.75C74.503 67.1428 73.9493 68.4785 72.9641 69.463C71.9788 70.4476 70.6428 71.0005 69.25 71ZM74.5 53.5H53.5V36H74.5V53.5Z" fill="white"/>
</svg>
