<svg width="100" height="100" viewBox="0 0 100 100" fill="none" xmlns="http://www.w3.org/2000/svg">
<rect width="100" height="100" rx="10" fill="#183F7F"/>
<path d="M66.0859 15H34.8998C34.1018 15 29.9159 15.2275 25.9829 19.7285C22.1104 24.156 22 28.517 22 29V67.5C22 69.3565 22.7507 71.137 24.0869 72.4497C25.4231 73.7625 27.2353 74.5 29.125 74.5H32.6875L25.5625 85H33.945L36.3212 81.5H64.8212L67.233 85H75.4374L68.3124 74.5H71.8749C73.7646 74.5 75.5769 73.7625 76.9131 72.4497C78.2493 71.137 78.9999 69.3565 78.9999 67.5V29C79.0035 28.342 78.8859 23.981 74.9779 19.6725C70.8596 15.1295 66.5633 15 66.0859 15ZM43.375 22H57.625V29H43.375V22ZM34.4687 67.5C33.051 67.4995 31.6915 66.9458 30.6894 65.9606C29.6873 64.9753 29.1245 63.6394 29.125 62.2465C29.1255 60.8536 29.6891 59.518 30.6919 58.5335C31.6947 57.5489 33.0546 56.996 34.4723 56.9965C35.89 56.997 37.2495 57.5507 38.2516 58.5359C39.2538 59.5212 39.8165 60.8572 39.816 62.25C39.8156 63.6428 39.2519 64.9785 38.2491 65.963C37.2463 66.9476 35.8865 67.5005 34.4687 67.5ZM66.5312 67.5C65.1135 67.4995 63.754 66.9458 62.7519 65.9606C61.7497 64.9753 61.187 63.6394 61.1875 62.2465C61.1879 60.8536 61.7516 59.518 62.7544 58.5335C63.7572 57.5489 65.117 56.996 66.5348 56.9965C67.9525 56.997 69.3119 57.5507 70.3141 58.5359C71.3162 59.5212 71.879 60.8572 71.8785 62.25C71.878 63.6428 71.3144 64.9785 70.3116 65.963C69.3088 66.9476 67.9489 67.5005 66.5312 67.5ZM71.8749 50H29.125V36H71.8749V50Z" fill="white"/>
</svg>
