<svg width="164px" height="36px" viewBox="0 0 164 36" version="1.1" xmlns="http://www.w3.org/2000/svg" xmlns:xlink="http://www.w3.org/1999/xlink"><path d="M51.777,26.76 L46.5,26.76 L46.5,27.67 L48.6,27.67 L48.6,32.54 L49.685,32.54 L49.685,27.67 L51.785,27.67 L51.785,26.76 L51.785,26.76 L51.777,26.76 Z M55.302,33.77 C55.210906,33.9831104 55.0506004,34.1592704 54.847,34.27 C54.6477847,34.3708071 54.4272571,34.4222522 54.204,34.42 C54.124677,34.417971 54.0455412,34.4112929 53.967,34.4 C53.8814172,34.3977824 53.7968525,34.3808694 53.717,34.35 C53.6856599,34.3518482 53.6542307,34.3484687 53.624,34.34 C53.5977814,34.3320078 53.5703751,34.3286243 53.543,34.33 L53.543,35.21 C53.6665987,35.2828747 53.80196,35.3336352 53.943,35.36 C54.097349,35.3883648 54.2540762,35.4017603 54.411,35.4 C54.479817,35.4015639 54.548658,35.3982221 54.617,35.39 L54.835,35.36 C55.1396253,35.2992711 55.4285709,35.17675 55.684,35 C55.9700479,34.7986276 56.1944169,34.5216289 56.332,34.2 L59.714,26.76 L58.503,26.76 L56.503,31.21 L54.303,26.76 L53.081,26.76 L55.913,32.52 L55.289,33.78 L55.289,33.77 L55.302,33.77 Z M62.275,32.47 C62.5048596,32.5281334 62.7389023,32.568255 62.975,32.59 C63.1922219,32.6176619 63.4110263,32.631024 63.63,32.63 C64.4434437,32.6549953 65.2378517,32.3810615 65.863,31.86 C66.494289,31.2681448 66.8249499,30.4231226 66.763,29.56 C66.8178366,28.7358917 66.4850025,27.9333917 65.863,27.39 C65.2979096,26.913502 64.5811539,26.6546046 63.842,26.66 C63.296163,26.6577196 62.7575172,26.7845001 62.27,27.03 L62.27,26.76 L61.184,26.76 L61.184,35.4 L62.27,35.4 L62.27,32.47 L62.27,32.47 L62.275,32.47 Z M62.275,28.05 C62.4316312,27.9522768 62.5966089,27.8686167 62.768,27.8 C62.9349437,27.7375145 63.1083564,27.6939097 63.285,27.67 C63.3426651,27.6584109 63.4012071,27.6517203 63.46,27.65 C63.5179393,27.6416611 63.5764879,27.6383155 63.635,27.64 C64.1248742,27.6350121 64.599673,27.8092828 64.97,28.13 C65.3868756,28.5166215 65.6029423,29.0733804 65.556,29.64 C65.6063397,30.2165553 65.3763815,30.7821484 64.938,31.16 C64.5522815,31.4674346 64.0779466,31.6427246 63.585,31.66 L63.36,31.66 C63.1686673,31.6416071 62.9790809,31.6081704 62.793,31.56 C62.6138174,31.5116221 62.4402015,31.4445889 62.275,31.36 L62.275,28.05 L62.275,28.05 L62.275,28.05 Z M72.781,28.07 L72.781,32.54 L73.866,32.54 L73.866,26.76 L72.781,26.76 L69.599,30.07 L69.599,26.76 L68.517,26.76 L68.517,32.54 L69.602,32.54 L69.602,31.38 L72.784,28.07 L72.784,28.07 L72.781,28.07 Z M80.592,31.16 C80.517,31.19 80.44,31.23 80.361,31.26 C80.282,31.29 80.205,31.32 80.131,31.35 C79.931,31.41 79.7353333,31.46 79.544,31.5 C79.3625638,31.530804 79.1790158,31.5475206 78.995,31.55 C78.4342977,31.5644861 77.8871727,31.3763121 77.454,31.02 C77.0522163,30.6468768 76.8239236,30.1233165 76.8239236,29.575 C76.8239236,29.0266835 77.0522163,28.5031232 77.454,28.13 C77.8916641,27.7839888 78.437328,27.6033992 78.995,27.62 C79.1792423,27.6174913 79.3632422,27.6342491 79.544,27.67 C79.7437901,27.7021943 79.9402576,27.752399 80.131,27.82 C80.205,27.84 80.282,27.87 80.361,27.9 C80.4400591,27.9283596 80.5172175,27.9617615 80.592,28 L81.066,27.12 C80.7779496,26.936409 80.4651131,26.794976 80.137,26.7 C79.8119254,26.6007994 79.4762623,26.5403801 79.137,26.52 L78.913,26.52 C78.0852333,26.5145845 77.2793321,26.7855644 76.623,27.29 C75.9292575,27.8405073 75.5495988,28.6962342 75.607,29.58 C75.5501944,30.4579879 75.9303873,31.3074345 76.623,31.85 C77.2793321,32.3544356 78.0852333,32.6254155 78.913,32.62 L79.137,32.62 C79.475873,32.6029853 79.8115412,32.5459217 80.137,32.45 C80.4666818,32.3593236 80.7801413,32.2176089 81.066,32.03 L80.592,31.16 L80.592,31.16 L80.592,31.16 Z M87.672,26.76 L82.395,26.76 L82.395,27.67 L84.495,27.67 L84.495,32.54 L85.58,32.54 L85.58,27.67 L87.68,27.67 L87.68,26.76 L87.68,26.76 L87.672,26.76 Z M93.727,31.16 C93.652,31.19 93.575,31.23 93.496,31.26 L93.265,31.35 C93.065,31.41 92.87,31.46 92.679,31.5 C92.4975638,31.530804 92.3140158,31.5475206 92.13,31.55 C91.5692977,31.5644861 91.0221727,31.3763121 90.589,31.02 C90.1872163,30.6468768 89.9589236,30.1233165 89.9589236,29.575 C89.9589236,29.0266835 90.1872163,28.5031232 90.589,28.13 C91.0266641,27.7839888 91.572328,27.6033992 92.13,27.62 C92.3142423,27.6174913 92.4982422,27.6342491 92.679,27.67 C92.8784874,27.7020806 93.0746332,27.7522885 93.265,27.82 C93.34,27.84 93.417,27.87 93.496,27.9 C93.5750591,27.9283596 93.6522175,27.9617615 93.727,28 L94.201,27.12 C93.9129496,26.936409 93.6001131,26.794976 93.272,26.7 C92.9469254,26.6007994 92.6112623,26.5403801 92.272,26.52 L92.048,26.52 C91.2202333,26.5145845 90.4143321,26.7855644 89.758,27.29 C89.0642575,27.8405073 88.6845988,28.6962342 88.742,29.58 C88.6851944,30.4579879 89.0653873,31.3074345 89.758,31.85 C90.4143321,32.3544356 91.2202333,32.6254155 92.048,32.62 L92.272,32.62 C92.610873,32.6029853 92.9465412,32.5459217 93.272,32.45 C93.6016818,32.3593236 93.9151413,32.2176089 94.201,32.03 L93.727,31.16 L93.727,31.16 L93.727,31.16 Z M100.044,32.61 L101.216,32.48 L99.794,29.95 C99.777,29.92 99.759,29.88 99.738,29.84 C99.717,29.8 99.694,29.77 99.669,29.74 C99.5036888,29.4611107 99.3019089,29.2055227 99.069,28.98 C98.8364467,28.755125 98.525496,28.629597 98.202,28.63 L100.448,26.76 L99.017,26.76 L96.817,28.59 L96.817,26.76 L95.727,26.76 L95.727,32.54 L96.817,32.54 L96.817,29.43 L97.603,29.43 C97.802275,29.4323724 97.9961433,29.4951355 98.159,29.61 C98.3348975,29.7256278 98.4786902,29.8838686 98.577,30.07 L100.049,32.61 L100.049,32.61 L100.044,32.61 Z M106.898,28.07 L106.898,32.54 L107.983,32.54 L107.983,26.76 L106.898,26.76 L103.717,30.07 L103.717,26.76 L102.631,26.76 L102.631,32.54 L103.717,32.54 L103.717,31.38 L106.898,28.07 L106.898,28.07 L106.898,28.07 Z M114.351,28.07 L114.351,32.54 L115.437,32.54 L115.437,26.76 L114.351,26.76 L111.17,30.07 L111.17,26.76 L110.084,26.76 L110.084,32.54 L111.17,32.54 L111.17,31.38 L114.351,28.07 L114.351,28.07 Z M111.195,25.16 L111.195,26.13 L114.289,26.13 L114.289,25.16 L111.195,25.16 Z M124.856,27.67 L127.963,27.67 L127.963,32.54 L129.048,32.54 L129.048,26.76 L123.771,26.76 L123.771,32.54 L124.856,32.54 L124.856,27.67 L124.856,27.67 Z M133.915,32.71 L133.927,32.68 C134.743377,32.6958596 135.533361,32.3906386 136.127,31.83 C136.746651,31.2578838 137.084061,30.4426885 137.05,29.6 L137.05,29.59 C137.086603,28.7491864 136.729036,27.9393925 136.083,27.4 C135.478359,26.8880593 134.711257,26.6080173 133.919,26.61 L133.869,26.61 C133.085132,26.604508 132.325484,26.881389 131.729,27.39 C131.0918,27.9382883 130.744036,28.7504778 130.787,29.59 L130.775,29.6 C130.73572,30.4535602 131.075777,31.2808251 131.704,31.86 C132.308684,32.4125866 133.099881,32.7162063 133.919,32.71 L133.919,32.71 L133.915,32.71 Z M133.902,31.77 C133.389297,31.7765747 132.89776,31.5658639 132.549,31.19 C132.164992,30.7871443 131.960142,30.2461651 131.981,29.69 C131.955944,29.1340759 132.145718,28.5898194 132.511,28.17 C132.860038,27.7769008 133.364456,27.5574293 133.89,27.57 L133.902,27.57 C134.431643,27.5541319 134.94107,27.7738706 135.293,28.17 C135.664442,28.5869739 135.859166,29.1320573 135.836,29.69 C135.856529,30.2472394 135.649285,30.7888174 135.262,31.19 C134.909985,31.5653885 134.416584,31.7758094 133.902,31.77 L133.902,31.77 L133.902,31.77 Z M139.855,32.47 C140.08486,32.5281334 140.318902,32.568255 140.555,32.59 C140.772222,32.6176619 140.991026,32.631024 141.21,32.63 C142.02343,32.654902 142.817805,32.3809793 143.443,31.86 C144.074289,31.2681448 144.40495,30.4231226 144.343,29.56 C144.397837,28.7358917 144.065002,27.9333917 143.443,27.39 C142.87791,26.913502 142.161154,26.6546046 141.422,26.66 C140.876163,26.6577196 140.337517,26.7845001 139.85,27.03 L139.85,26.76 L138.764,26.76 L138.764,35.4 L139.85,35.4 L139.85,32.47 L139.85,32.47 L139.855,32.47 Z M139.855,28.05 C140.011398,27.9524824 140.176025,27.8688304 140.347,27.8 C140.514322,27.7376255 140.688053,27.6940249 140.865,27.67 C140.922665,27.6584109 140.981207,27.6517203 141.04,27.65 C141.097939,27.6416611 141.156488,27.6383155 141.215,27.64 C141.704579,27.6349789 142.179075,27.8092692 142.549,28.13 C142.966625,28.5161727 143.183146,29.0731514 143.136,29.64 C143.18634,30.2165553 142.956381,30.7821484 142.518,31.16 C142.132282,31.4674346 141.657947,31.6427246 141.165,31.66 L140.94,31.66 C140.748349,31.6415243 140.558437,31.6080891 140.372,31.56 C140.193194,31.511452 140.019927,31.4444242 139.855,31.36 L139.855,28.05 L139.855,28.05 L139.855,28.05 Z M150.725,26.76 L145.448,26.76 L145.448,27.67 L147.548,27.67 L147.548,32.54 L148.633,32.54 L148.633,27.67 L150.733,27.67 L150.733,26.76 L150.733,26.76 L150.725,26.76 Z M152.525,26.92 L152.525,27.93 C152.837937,27.7995362 153.158931,27.6893093 153.486,27.6 C153.759565,27.5315962 154.040052,27.49469 154.322,27.49 C154.388823,27.4882913 154.45568,27.4916341 154.522,27.5 C154.58907,27.5017061 154.65592,27.5083911 154.722,27.52 L154.922,27.55 C154.987407,27.5713521 155.05424,27.5880603 155.122,27.6 C155.324723,27.6694557 155.496921,27.807356 155.609,27.99 C155.742185,28.302067 155.797771,28.6417585 155.771,28.98 C155.613,28.94 155.442333,28.9 155.259,28.86 C155.076,28.83 154.893,28.81 154.71,28.79 C154.643182,28.791328 154.576352,28.7879865 154.51,28.78 L154.304,28.78 C153.650503,28.7731374 153.005419,28.9277103 152.426,29.23 C151.859876,29.5223006 151.523263,30.1246596 151.571,30.76 C151.5198,31.3298347 151.789553,31.8809017 152.271,32.19 C152.737815,32.4669466 153.264152,32.6281051 153.806,32.66 L154.017,32.66 C154.367878,32.6617384 154.717702,32.6214515 155.059,32.54 C155.327463,32.4916048 155.586421,32.4004461 155.826,32.27 L155.826,32.54 L156.849,32.54 L156.849,28.64 C156.858313,28.2576768 156.770582,27.8792294 156.594,27.54 C156.425211,27.235477 156.159459,26.9961244 155.839,26.86 C155.631322,26.7644684 155.410562,26.7004312 155.184,26.67 C154.921636,26.6293492 154.656494,26.6092879 154.391,26.61 C154.212102,26.6068414 154.033165,26.6135181 153.855,26.63 C153.670704,26.6468557 153.487442,26.6735605 153.306,26.71 C153.173,26.73 153.04,26.76 152.906,26.79 C152.772,26.82 152.644,26.87 152.519,26.92 L152.519,26.92 L152.525,26.92 Z M152.712,30.76 C152.682886,30.4194587 152.87333,30.0980346 153.186,29.96 C153.511556,29.8094157 153.863596,29.724464 154.222,29.71 L154.359,29.71 C154.584,29.71 154.798,29.73 155.002,29.75 C155.175953,29.7698106 155.348586,29.7998627 155.519,29.84 C155.569,29.85 155.619,29.87 155.663,29.88 C155.699038,29.8873196 155.734472,29.897348 155.769,29.91 L155.769,31.38 C155.589525,31.4766092 155.398726,31.5505103 155.201,31.6 C154.973205,31.652885 154.741965,31.6896429 154.509,31.71 C154.469875,31.7180753 154.429924,31.7214326 154.39,31.72 L154.272,31.72 C153.898101,31.7288233 153.526987,31.6536436 153.186,31.5 C152.888345,31.3772683 152.699024,31.0817037 152.712,30.76 L152.712,30.76 L152.712,30.76 Z M159.373,32.61 L160.908,27.93 C160.908051,27.9197071 160.910089,27.9095209 160.914,27.9 C160.921563,27.8946203 160.928015,27.887829 160.933,27.88 C160.963134,27.8234024 161.003088,27.7726122 161.051,27.73 C161.123046,27.6826114 161.209193,27.6614279 161.295,27.67 L162.467,27.67 L162.467,32.54 L163.553,32.54 L163.553,26.76 L159.261,26.76 L159.261,27.67 L159.935,27.67 L158.25,32.54 L159.373,32.61 L159.373,32.61 L159.373,32.61 Z" fill="#B6B6B6"></path><path d="M58.877,19.59 L62.196,19.31 L55.896,9.94 C55.6577811,9.59062807 55.3369436,9.30551549 54.962,9.11 C54.5015586,8.85232008 53.9943172,8.68913248 53.47,8.63 L59.661,2.46 L56.147,2.46 L50.012,8.68 L50.012,2.46 L47,2.46 L47,19.33 L50.012,19.33 L50.012,11 L52.104,11 C52.4245206,10.9937284 52.7427663,11.0550606 53.038,11.18 C53.3431005,11.3293432 53.6138269,11.5404757 53.833,11.8 C53.907,11.9 53.976,11.99 54.042,12.08 C54.108,12.17 54.176,12.28 54.251,12.39 L58.88,19.59 L58.88,19.59 L58.877,19.59 Z M67.346,11 L64.028,19.33 L67.012,19.33 L70.247,11 L75.047,11 L78.226,19.33 L81.544,19.33 L74.823,2.46 L70.832,2.46 L68.35,8.65 L65.506,8.65 L65.506,11 L67.346,11 L67.346,11 Z M71.223,8.65 L72.729,4.86 L74.207,8.65 L71.223,8.65 Z M84.015,19.33 L86.999,19.33 L86.999,11.94 L91.461,11.94 C93.0010269,12.0667177 94.5289871,11.581708 95.714,10.59 C96.6505792,9.65189593 97.1514333,8.36439989 97.095,7.04 C97.1494326,5.71050377 96.5240072,4.44458249 95.435,3.68 C94.083962,2.79836467 92.4867936,2.37095835 90.876,2.46 L84.012,2.46 L84.012,19.33 L84.012,19.33 L84.015,19.33 Z M86.999,4.83 L91.043,4.83 C91.9037444,4.76312979 92.755923,5.03999795 93.413,5.6 C93.8980594,6.02944291 94.1812697,6.64227953 94.194,7.29 C94.1780168,7.89640186 93.91634,8.47028599 93.469,8.88 C92.8789757,9.39843402 92.1052952,9.65788904 91.322,9.6 L86.999,9.6 L86.999,4.83 L86.999,4.83 L86.999,4.83 Z M99.674,19.33 L111.774,19.33 L111.774,16.99 L102.683,16.99 L102.683,11 L111.774,11 L111.774,8.65 L102.683,8.65 L102.683,4.83 L111.216,4.83 L111.216,2.46 L99.674,2.46 L99.674,19.33 L99.674,19.33 L99.674,19.33 Z M120.974,5.36 C121.009666,5.21374702 121.09306,5.08355322 121.211,4.99 C121.32021,4.88626892 121.465382,4.82891693 121.616,4.83 L124.906,4.83 L124.906,19.33 L127.89,19.33 L127.89,2.46 L116.599,2.46 L116.599,4.83 L118.523,4.83 C118.461252,4.85192772 118.404484,4.88592084 118.356,4.93 C118.304367,4.97512285 118.257459,5.02538162 118.216,5.08 C118.198,5.12 118.184,5.15 118.174,5.18 C118.166075,5.20625312 118.152022,5.23024605 118.133,5.25 L113.812,19.33 L116.852,19.53 L120.979,5.36 L120.979,5.36 L120.974,5.36 Z M145.805,2.46 L142.794,2.46 L134.818,10.88 L134.818,2.46 L131.834,2.46 L131.834,19.33 L134.818,19.33 L134.818,14.68 L142.794,6.14 L142.794,19.33 L145.812,19.33 L145.812,2.46 L145.812,2.46 L145.805,2.46 Z M154.821,2.46 C154.21006,2.44773656 153.601455,2.53902734 153.021,2.73 C152.53209,2.89024107 152.081164,3.14888526 151.696,3.49 C151.357253,3.79151881 151.06983,4.14615354 150.845,4.54 C150.642174,4.89457169 150.487481,5.27457988 150.385,5.67 C150.349289,5.81171867 150.321248,5.95526054 150.301,6.1 C150.283045,6.24263034 150.274027,6.38624396 150.274,6.53 C150.27766,7.51015663 150.650822,8.45288158 151.319,9.17 C152.043275,9.97347072 153.042231,10.4765164 154.119,10.58 C153.405653,11.13466 152.804589,11.8202318 152.348,12.6 C151.502,13.8 150.121667,15.9333333 148.207,19 L151.163,19.59 C153.375,16.09 154.899667,13.8033333 155.737,12.73 C156.165185,12.0408364 156.735563,11.4510252 157.41,11 L160.143,11 L160.143,19.33 L163.155,19.33 L163.155,2.46 L154.816,2.46 L154.821,2.46 Z M155.881,8.63 C155.190361,8.67807319 154.506002,8.47176944 153.957,8.05 C153.5527,7.75075825 153.297481,7.29136393 153.257,6.79 L153.257,6.62 C153.290721,6.13881281 153.522903,5.69328303 153.898,5.39 C154.392405,4.98902544 155.01975,4.78907495 155.655,4.83 L160.145,4.83 L160.145,8.65 L155.878,8.63 L155.878,8.63 L155.881,8.63 Z" fill="#B6B6B6"></path><path d="M3.784,0.99 L30.223,0.99 C31.2252427,0.989999684 32.1863923,1.38834426 32.8948035,2.09731814 C33.6032147,2.80629202 34.0007961,3.76775763 34,4.77 L34,31.23 C34.0007961,32.2322424 33.6032147,33.193708 32.8948035,33.9026819 C32.1863923,34.6116557 31.2252427,35.0100003 30.223,35.01 L3.784,35.01 C2.78175732,35.0100003 1.82060767,34.6116557 1.11219647,33.9026819 C0.403785265,33.193708 0.0062039375,32.2322424 0.007,31.23 L0.007,4.77 C0.0062039375,3.76775763 0.403785265,2.80629202 1.11219647,2.09731814 C1.82060767,1.38834426 2.78175732,0.989999684 3.784,0.99 Z M4.539,4.01 C3.70534418,4.01110035 3.02965226,4.68634509 3.028,5.52 L3.028,30.48 C3.02965226,31.3136549 3.70534418,31.9888996 4.539,31.99 L29.468,31.99 C30.3016558,31.9888996 30.9773477,31.3136549 30.979,30.48 L30.979,5.52 C30.9773477,4.68634509 30.3016558,4.01110035 29.468,4.01 L4.539,4.01 Z" fill="#5BC16F"></path><path d="M17,7.79 C18.4602717,7.78945052 19.6447077,8.97239828 19.6459942,10.4326696 C19.6472807,11.8929409 18.4649309,13.0779738 17.0046605,13.0799973 C15.54439,13.0820208 14.3587605,11.9002692 14.356,10.44 C14.3554457,8.97855774 15.5385602,7.79275837 17,7.79 Z M12.089,14.6 L19.643,14.6 L19.643,25.94 L22.665,26.69 L22.665,28.21 L12.093,28.21 L12.093,26.69 L15.115,25.94 L15.115,17.62 L12.093,16.11 L12.093,14.6 L12.089,14.6 Z" fill="#5BC16F"></path></svg>