<svg width="219px" height="47px" viewBox="0 0 219 47" version="1.1" xmlns="http://www.w3.org/2000/svg" xmlns:xlink="http://www.w3.org/1999/xlink"><path d="M65.691,35.176 L58.5,35.176 L58.5,36.417 L61.356,36.417 L61.356,43.064 L62.835,43.064 L62.835,36.417 L65.691,36.417 L65.691,35.176 L65.691,35.176 Z M70.491,44.73 C70.3681044,45.0211736 70.1488547,45.2612538 69.87,45.41 C69.5984918,45.5455907 69.2984537,45.6141709 68.995,45.61 C68.895,45.61 68.785,45.604 68.672,45.593 C68.5567536,45.5812538 68.4428991,45.5584829 68.332,45.525 C68.2887584,45.525186 68.245694,45.5194665 68.204,45.508 C68.1683225,45.4971566 68.1312864,45.4914328 68.094,45.491 L68.094,46.698 C68.2656611,46.7947615 68.452198,46.8623474 68.646,46.898 C68.8563664,46.9374838 69.0699604,46.9572362 69.284,46.957 C69.377584,46.9567678 69.4710753,46.9510915 69.564,46.94 L69.864,46.906 C70.2791646,46.8191714 70.6724178,46.6490792 71.02,46.406 C71.4082204,46.1339741 71.7140609,45.7603229 71.904,45.326 L76.51,35.176 L74.861,35.176 L72.141,41.245 L69.149,35.176 L67.483,35.176 L71.342,43.03 L70.492,44.747 L70.492,44.73 L70.491,44.73 Z M79.991,42.962 C80.3073661,43.0391695 80.6283593,43.0959529 80.952,43.132 C81.2481901,43.1651447 81.5459624,43.1821698 81.844,43.183 C82.9536225,43.2190694 84.037413,42.8436783 84.887,42.129 C85.7461097,41.324454 86.1959165,40.1749476 86.111,39.001 C86.1879501,37.8778553 85.7350639,36.7833803 84.887,36.043 C84.1173076,35.3924612 83.1407702,35.0378725 82.133,35.043 C81.3891275,35.0447264 80.6558359,35.2193196 79.991,35.553 L79.991,35.176 L78.512,35.176 L78.512,46.957 L79.991,46.957 L79.991,42.957 L79.991,42.957 L79.991,42.962 Z M79.991,36.944 C80.2035411,36.8093132 80.4285842,36.6954521 80.663,36.604 C80.8884001,36.5150594 81.1232741,36.4523145 81.363,36.417 C81.442,36.406 81.522,36.397 81.601,36.392 C81.68,36.387 81.76,36.384 81.839,36.384 C82.5053271,36.3791031 83.1511052,36.6144802 83.658,37.047 C84.2267168,37.573218 84.5217444,38.3318077 84.458,39.104 C84.5284213,39.8904875 84.215301,40.6626771 83.617,41.178 C83.0905224,41.5961 82.4438859,41.8344268 81.772,41.858 L81.466,41.858 C81.2048641,41.8352667 80.9462139,41.7897603 80.693,41.722 C80.4482081,41.6581052 80.2113844,41.5668644 79.987,41.45 L79.987,36.944 L79.987,36.944 L79.991,36.944 Z M94.31,36.964 L94.31,43.064 L95.789,43.064 L95.789,35.176 L94.31,35.176 L89.975,39.698 L89.975,35.176 L88.496,35.176 L88.496,43.064 L89.975,43.064 L89.975,41.483 L94.31,36.964 L94.31,36.964 Z M104.953,41.18 C104.853,41.225 104.746,41.271 104.639,41.316 C104.532,41.361 104.426,41.401 104.324,41.435 C104.062742,41.5216898 103.795317,41.5885462 103.524,41.635 C103.277084,41.6791158 103.026824,41.7018666 102.776,41.703 C102.012899,41.7253817 101.267311,41.4718818 100.676,40.989 C100.097729,40.5016517 99.7800424,39.7723408 99.817,39.017 C99.7791352,38.2640699 100.097252,37.5371033 100.676,37.054 C101.269605,36.5761236 102.014266,36.3257757 102.776,36.348 C103.026819,36.3492321 103.27707,36.3719822 103.524,36.416 C103.795277,36.4626418 104.062689,36.5294947 104.324,36.616 C104.426,36.65 104.531,36.687 104.639,36.727 C104.747128,36.7670609 104.852091,36.8151966 104.953,36.871 L105.599,35.664 C105.205506,35.4161524 104.779414,35.22431 104.333,35.094 C103.886569,34.9641617 103.427705,34.8817068 102.964,34.848 L102.658,34.848 C101.52941,34.8387275 100.430623,35.2100395 99.539,35.902 C98.65709,36.693864 98.1533158,37.8232516 98.1533158,39.0085 C98.1533158,40.1937484 98.65709,41.323136 99.539,42.115 C100.432628,42.8022962 101.530677,43.1705421 102.658,43.161 L102.964,43.161 C103.427767,43.1382223 103.887251,43.0610263 104.333,42.931 C104.779454,42.8008002 105.205561,42.608951 105.599,42.361 L104.953,41.171 L104.953,41.171 L104.953,41.18 Z M114.601,35.18 L107.41,35.18 L107.41,36.421 L110.266,36.421 L110.266,43.064 L111.745,43.064 L111.745,36.417 L114.601,36.417 L114.601,35.176 L114.601,35.176 L114.601,35.18 Z M122.851,41.18 C122.749,41.2253333 122.644,41.2706667 122.536,41.316 C122.428,41.361 122.324,41.401 122.222,41.435 C121.960709,41.5215737 121.693292,41.5884278 121.422,41.635 C121.175084,41.6791158 120.924824,41.7018666 120.674,41.703 C119.910913,41.7252915 119.165356,41.4718021 118.574,40.989 C117.996355,40.5012639 117.679109,39.7721151 117.716,39.017 C117.677891,38.2642399 117.995625,37.5373037 118.574,37.054 C119.167605,36.5761236 119.912266,36.3257757 120.674,36.348 C120.924819,36.3492321 121.17507,36.3719822 121.422,36.416 C121.693252,36.4627616 121.960655,36.5296123 122.222,36.616 C122.322,36.65 122.428,36.687 122.536,36.727 C122.644535,36.7668571 122.749845,36.8149989 122.851,36.871 L123.497,35.664 C123.10325,35.4159646 122.676801,35.224113 122.23,35.094 C121.783891,34.9642451 121.325366,34.8817911 120.862,34.848 L120.556,34.848 C119.427131,34.8388927 118.32808,35.2101747 117.436,35.902 C116.554667,36.6941949 116.051308,37.8234597 116.051308,39.0085 C116.051308,40.1935403 116.554667,41.3228051 117.436,42.115 C118.330082,42.8021636 119.428397,43.1703805 120.556,43.161 L120.862,43.161 C121.32543,43.1381352 121.784573,43.0609402 122.23,42.931 C122.676865,42.8010594 123.103337,42.6091973 123.497,42.361 L122.851,41.171 L122.851,41.171 L122.851,41.18 Z M131.458,43.152 L133.058,42.982 L131.12,39.531 C131.097,39.486 131.071,39.438 131.043,39.387 C131.015455,39.3365357 130.984378,39.2880817 130.95,39.242 C130.720506,38.8651733 130.443202,38.5196361 130.125,38.214 C129.809137,37.9054022 129.385587,37.7318222 128.944,37.73 L132.004,35.18 L130.066,35.18 L127.057,37.68 L127.057,35.18 L125.578,35.18 L125.578,43.064 L127.057,43.064 L127.057,38.814 L128.128,38.814 C128.399114,38.8174468 128.662773,38.9032406 128.884,39.06 C129.124904,39.2210333 129.32102,39.4405461 129.454,39.698 L131.46,43.149 L131.46,43.149 L131.458,43.152 Z M140.797,36.964 L140.797,43.064 L142.276,43.064 L142.276,35.176 L140.797,35.176 L136.462,39.698 L136.462,35.176 L134.983,35.176 L134.983,43.064 L136.462,43.064 L136.462,41.483 L140.797,36.961 L140.797,36.961 L140.797,36.964 Z M150.953,36.964 L150.953,43.064 L152.432,43.064 L152.432,35.176 L150.953,35.176 L146.618,39.698 L146.618,35.176 L145.139,35.176 L145.139,43.064 L146.618,43.064 L146.618,41.483 L150.953,36.961 L150.953,36.961 L150.953,36.964 Z M146.653,33.003 L146.653,34.329 L150.869,34.329 L150.869,33 L146.653,33 L146.653,33.003 Z M165.268,36.42 L169.501,36.42 L169.501,43.064 L170.98,43.064 L170.98,35.176 L163.789,35.176 L163.789,43.064 L165.268,43.064 L165.268,36.417 L165.268,36.417 L165.268,36.42 Z M177.61,43.285 L177.627,43.251 C178.736664,43.2691327 179.809791,42.8545153 180.619,42.095 C181.462857,41.3132317 181.922485,40.2014293 181.877,39.052 L181.877,39.035 C181.926692,37.8895051 181.439776,36.7862706 180.56,36.051 C179.73304,35.3575312 178.689235,34.9757459 177.61,34.972 L177.542,34.972 C176.47287,34.9652062 175.437417,35.3456418 174.627,36.043 C173.757341,36.7866402 173.282839,37.892333 173.343,39.035 L173.326,39.052 C173.272258,40.2146102 173.736197,41.3413199 174.593,42.129 C175.417123,42.8806525 176.494613,43.2935057 177.61,43.285 L177.61,43.285 L177.61,43.285 Z M177.593,42.01 C176.894778,42.0167524 176.225777,41.7301414 175.749,41.22 C175.223481,40.6704308 174.944075,39.9307634 174.975,39.171 C174.94243,38.4127236 175.2011,37.6707021 175.698,37.097 C176.17631,36.5658952 176.861375,36.2682311 177.576,36.281 L177.593,36.281 C178.315872,36.2584805 179.011597,36.5572761 179.493,37.097 C179.99595,37.6681234 180.260478,38.4105203 180.232,39.171 C180.262551,39.9322084 179.979942,40.6727033 179.45,41.22 C178.969088,41.7295866 178.297657,42.0158414 177.597,42.01 L177.597,42.01 L177.593,42.01 Z M185.704,42.962 C186.020047,43.0390819 186.340702,43.0958646 186.664,43.132 C186.960527,43.1651181 187.258631,43.1821431 187.557,43.183 C188.666622,43.2190694 189.750413,42.8436783 190.6,42.129 C191.45911,41.324454 191.908917,40.1749476 191.824,39.001 C191.90095,37.8778553 191.448064,36.7833803 190.6,36.043 C189.830308,35.3924612 188.85377,35.0378725 187.846,35.043 C187.102127,35.0447264 186.368836,35.2193196 185.704,35.553 L185.704,35.176 L184.225,35.176 L184.225,46.957 L185.704,46.957 L185.704,42.957 L185.704,42.957 L185.704,42.962 Z M185.704,36.944 C185.916305,36.8095153 186.140997,36.6956627 186.375,36.604 C186.602387,36.5148101 186.839277,36.4520646 187.081,36.417 C187.16,36.406 187.24,36.397 187.319,36.392 C187.398,36.387 187.478,36.384 187.557,36.384 C188.223327,36.3791031 188.869105,36.6144802 189.376,37.047 C189.944717,37.573218 190.239744,38.3318077 190.176,39.104 C190.246008,39.8906339 189.932533,40.6627799 189.334,41.178 C188.8079,41.5960864 188.161582,41.8344248 187.49,41.858 L187.184,41.858 C186.922533,41.8352839 186.663549,41.7897777 186.41,41.722 C186.167243,41.6577521 185.932446,41.5665168 185.71,41.45 L185.71,36.944 L185.71,36.944 L185.704,36.944 Z M200.516,35.176 L193.325,35.176 L193.325,36.417 L196.181,36.417 L196.181,43.064 L197.66,43.064 L197.66,36.417 L200.516,36.417 L200.516,35.176 L200.516,35.176 Z M202.967,35.397 L202.967,36.774 C203.391908,36.5947769 203.829421,36.4470452 204.276,36.332 C204.64801,36.2347577 205.030516,36.1833763 205.415,36.179 C205.506,36.179 205.596,36.179 205.687,36.188 C205.778,36.197 205.868,36.202 205.959,36.213 C206.0506,36.2245748 206.141428,36.2416051 206.231,36.264 L206.503,36.332 C206.78106,36.420585 207.016962,36.608097 207.166,36.859 C207.346287,37.2824703 207.422085,37.7430888 207.387,38.202 C207.172,38.145 206.939,38.094 206.687,38.049 C206.435,38.004 206.187,37.97 205.939,37.949 C205.848,37.949 205.755,37.949 205.659,37.941 C205.563,37.933 205.469,37.933 205.378,37.933 C204.487985,37.9235903 203.609383,38.1337955 202.82,38.545 C202.047025,38.9448366 201.588232,39.7683013 201.655,40.636 C201.582903,41.412029 201.950262,42.1633404 202.607,42.583 C203.241644,42.9627747 203.959444,43.1817879 204.698,43.221 L205.01,43.221 C205.487568,43.2233161 205.963886,43.1719945 206.43,43.068 C206.795068,42.9962629 207.147317,42.8701949 207.475,42.694 L207.475,43.064 L208.869,43.064 L208.869,37.743 C208.883472,37.2214384 208.763638,36.704912 208.521,36.243 C208.290721,35.826207 207.92888,35.4974211 207.492,35.308 C207.207062,35.1844556 206.907183,35.0987279 206.6,35.053 C206.242893,34.9954866 205.881707,34.9670599 205.52,34.968 C205.282,34.968 205.038333,34.9793333 204.789,35.002 C204.54,35.025 204.289,35.059 204.041,35.102 C203.86,35.136 203.678,35.176 203.497,35.221 C203.317713,35.2657608 203.141647,35.3225562 202.97,35.391 L202.97,35.391 L202.967,35.397 Z M203.222,40.633 C203.181032,40.1661602 203.440334,39.7246239 203.868,39.533 C204.312277,39.3317933 204.791594,39.2193526 205.279,39.202 L205.466,39.202 C205.758764,39.2012213 206.051304,39.2182527 206.342,39.253 C206.577256,39.2803857 206.810911,39.3201071 207.042,39.372 C207.11,39.395 207.175,39.414 207.242,39.431 C207.309,39.448 207.352,39.462 207.386,39.473 L207.386,41.479 C207.140015,41.6040815 206.88071,41.7010273 206.613,41.768 C206.303888,41.848776 205.987801,41.9000061 205.669,41.921 C205.616029,41.931983 205.562097,41.9376777 205.508,41.938 L205.346,41.938 C204.83635,41.9475605 204.331015,41.8430084 203.867,41.632 C203.462718,41.4677826 203.20449,41.0680494 203.221,40.632 L203.221,40.632 L203.222,40.633 Z M212.299,43.149 L214.39,36.774 C214.389794,36.7621773 214.392544,36.7504903 214.398,36.74 C214.404759,36.7273277 214.413541,36.7158434 214.424,36.706 C214.466995,36.6314044 214.521308,36.5639346 214.585,36.506 C214.682198,36.4394407 214.799776,36.409338 214.917,36.421 L216.517,36.421 L216.517,43.064 L217.996,43.064 L217.996,35.176 L212.148,35.176 L212.148,36.417 L213.066,36.417 L210.769,43.064 L212.299,43.149 L212.299,43.149 L212.299,43.149 Z" fill="#183F7F"></path><path d="M75.429,25.342 L79.951,24.962 L71.368,12.194 C71.0410541,11.7224493 70.6041143,11.3376814 70.095,11.073 C69.4673829,10.7204243 68.776656,10.4944856 68.062,10.408 L76.499,2.008 L71.711,2.008 L63.35,10.482 L63.35,2.01 L59.25,2.01 L59.25,25 L63.35,25 L63.35,13.638 L66.2,13.638 C66.6370352,13.6292757 67.0709403,13.7134662 67.473,13.885 C67.890837,14.0895146 68.260097,14.3810356 68.556,14.74 C68.6566667,14.8673333 68.7516667,14.994 68.841,15.12 C68.93,15.247 69.025,15.386 69.126,15.538 L75.434,25.338 L75.434,25.338 L75.429,25.342 Z M86.97,13.642 L82.448,25 L86.514,25 L90.922,13.638 L97.458,13.638 L101.79,25 L106.312,25 L97.154,2.01 L91.72,2.01 L88.338,10.446 L84.462,10.446 L84.462,13.638 L86.968,13.638 L86.97,13.642 Z M92.252,10.45 L94.304,5.282 L96.318,10.45 L92.252,10.45 L92.252,10.45 Z M109.682,25 L113.748,25 L113.748,14.93 L119.828,14.93 C122.436667,14.93 124.37,14.3156667 125.628,13.087 C126.903775,11.8053414 127.585744,10.0487542 127.509,8.242 C127.578159,6.43152761 126.727507,4.70877881 125.248,3.663 C123.405352,2.46560194 121.229056,1.88658746 119.035,2.01 L109.687,2.01 L109.687,25 L109.687,25 L109.682,25 Z M113.748,5.24 L119.258,5.24 C120.430559,5.14694067 121.592158,5.52275211 122.488,6.285 C123.146719,6.87061259 123.532173,7.7038307 123.552,8.585 C123.534082,9.41204107 123.176802,10.1953096 122.564,10.751 C121.762104,11.4619459 120.706734,11.8183045 119.638,11.739 L113.748,11.739 L113.748,5.239 L113.748,5.239 L113.748,5.24 Z M131.019,25 L147.511,25 L147.511,21.808 L135.123,21.808 L135.123,13.638 L147.511,13.638 L147.511,10.446 L135.123,10.446 L135.123,5.24 L146.751,5.24 L146.751,2.01 L131.019,2.01 L131.019,25 L131.019,25 Z M160.047,5.962 C160.096095,5.76045883 160.209477,5.58038261 160.37,5.449 C160.521919,5.31428125 160.717952,5.23992407 160.921,5.24 L165.405,5.24 L165.405,25 L169.468,25 L169.468,2.01 L154.078,2.01 L154.078,5.24 L156.7,5.24 C156.616483,5.26996697 156.539195,5.3150515 156.472,5.373 C156.398779,5.43299164 156.334762,5.50340933 156.282,5.582 C156.259461,5.62473162 156.2404,5.66920866 156.225,5.715 C156.212771,5.75026624 156.193362,5.78261377 156.168,5.81 L150.281,25 L154.423,25.266 L160.047,5.966 L160.047,5.966 L160.047,5.962 Z M193.881,2.01 L189.781,2.01 L178.909,13.486 L178.909,2.01 L174.843,2.01 L174.843,25 L178.909,25 L178.909,18.654 L189.777,7.026 L189.777,25 L193.877,25 L193.877,2.01 L193.877,2.01 L193.881,2.01 Z M206.166,2.01 C205.334661,1.99400111 204.506423,2.11598953 203.715,2.371 C203.049025,2.59406101 202.435049,2.94952119 201.91,3.416 C201.447616,3.82372858 201.055979,4.30524867 200.751,4.841 C200.47479,5.32398071 200.263947,5.84150494 200.124,6.38 C200.074718,6.57398069 200.036655,6.77063998 200.01,6.969 C199.984495,7.16429382 199.971801,7.36104782 199.972,7.558 C199.978269,8.89165605 200.487106,10.1739252 201.397,11.149 C202.384104,12.2452151 203.747302,12.9302047 205.216,13.068 C204.244415,13.8251925 203.425558,14.7601075 202.803,15.823 C201.649667,17.457 199.768667,20.364 197.16,24.544 L201.188,25.344 C204.202667,20.5813333 206.28,17.4653333 207.42,15.996 C208.56,14.5266667 209.32,13.7413333 209.7,13.64 L213.424,13.64 L213.424,25 L217.524,25 L217.524,2.01 L206.168,2.01 L206.166,2.01 Z M207.61,10.41 C206.670877,10.4730334 205.740362,10.1965762 204.988,9.631 C204.436944,9.21851951 204.090677,8.58831509 204.038,7.902 L204.038,7.672 C204.086442,7.01802926 204.402678,6.41305593 204.912,6 C205.585539,5.45370984 206.440696,5.1822316 207.306,5.24 L213.424,5.24 L213.424,10.446 L207.61,10.408 L207.61,10.408 L207.61,10.41 Z" fill="#183F7F"></path><rect fill="#2A9F41" fill-rule="nonzero" x="0" y="0" width="45" height="45" rx="5"></rect><path d="M22.5,9 C24.4329966,9 26,10.5670034 26,12.5 C26,14.4329966 24.4329966,16 22.5,16 C20.5670034,16 19,14.4329966 19,12.5 C19,10.5670034 20.5670034,9 22.5,9 Z M16,18 L26,18 L26,33 L30,34 L30,36 L16,36 L16,34 L20,33 L20,22 L16,20 L16,18 Z" fill="#FFF"></path></svg>